<?xml version="1.0" encoding="utf-8"?>
<!-- Generator: Adobe Illustrator 25.1.0, SVG Export Plug-In . SVG Version: 6.00 Build 0)  -->
<svg version="1.1" id="圖層_1" xmlns="http://www.w3.org/2000/svg" xmlns:xlink="http://www.w3.org/1999/xlink" x="0px" y="0px"
	 viewBox="0 0 24 24" style="enable-background:new 0 0 24 24;" xml:space="preserve">
<!-- <style type="text/css">
	.st0{fill:#FFFFFF;}
</style> -->
<g>
	<path class="st0" d="M21.4,13.2c-0.2-0.1-0.5-0.2-0.7-0.4l0,0c-0.2-0.1-0.3-0.2-0.5-0.3l0,0l-0.3-0.3l0,0c-0.3-0.1-0.4-0.4-0.6-0.6
		s-0.2-0.4-0.4-0.4 M18.8,11.2c0-0.1-0.2-0.1-0.2-0.2c0,0,0,0,0,0c0-0.1-0.1-0.2-0.3-0.2l0,0l-0.9-0.6c-0.1-0.1-0.2-0.2-0.3-0.3l0,0
		l-0.5-0.4c-0.2-0.4-0.6-0.5-0.9-0.8l0,0c-0.1-0.2-0.2-0.3-0.3-0.4l0,0c-1-0.9-1.9-1.8-2.7-2.8h-0.1h-0.1h0.1
		c-0.1-0.1-0.1-0.2-0.2-0.2C12.2,5.2,12,5,11.9,4.8c-0.1-0.1-0.2,0-0.3-0.2S11.2,4.2,10.9,4l-0.4-0.3l0,0l0,0l0,0l0,0l0,0l-0.2-0.1
		l0,0c0-0.1,0-0.2-0.1-0.2l0,0H10l0,0c-0.3,0-0.4,0.1-0.5,0.4c0,0-0.1,0.1-0.1,0.1C9,3.9,8.8,4.1,8.7,4.5C8.3,4.8,8,5.1,7.8,5.5
		C7.6,5.7,7.5,5.9,7.7,6.1S8,6.4,8.2,6.4c0.3,0.2,0.6,0.3,0.6,0.7l0,0v0.1C8.7,7.4,8.5,7.4,8.3,7.5S8.1,7.5,8,7.5l0,0
		C7.8,7.4,7.6,7.1,7.6,6.9c0-0.1-0.1-0.2-0.2-0.2l0,0C7.2,6.6,7,6.5,6.9,6.7C6.4,7,6,7.4,5.7,7.9C5.6,8,5.3,8.1,5.4,8.4
		c0,0.2,0.1,0.4,0.3,0.5C5.9,9,6,9.1,6.1,9.2c0,0.3-0.3,0.4-0.4,0.6l0,0c-0.3,0-0.5,0.2-0.8,0C4.7,9.7,4.8,9.5,4.6,9.4
		c-0.3-0.3-0.5-0.3-0.7,0s-0.7,0.7-1,1c-0.1,0.2-0.3,0.3-0.4,0.5l0,0c-0.1,0,0,0.1,0,0.1c0.1,0.4,0.4,0.7,0.7,0.8l0,0
		c0,0.1,0.1,0.1,0.2,0.2c0.9,0.7,1.7,1.4,2.6,2.1c0.5,0.4,1,0.8,1.5,1.1l0.3,0.3c0.3,0.3,0.8,0.5,1.1,0.8c0.4,0.4,0.9,0.8,1.4,1.1
		c0.1,0.1,0.2,0.1,0.3,0.2l3.2,2.5c0,0.1,0.1,0.1,0.1,0.2c0.2,0.3,0.5,0.3,0.7,0.2c0,0,0,0,0,0c0.1-0.1,0.2,0,0.2,0s0.5,0.2,0.6-0.1
		l0,0c0.1-0.2,0.3-0.4,0.4-0.5c0.3-0.2,0.6-0.4,0.8-0.7c0.1-0.1,0.2-0.2,0.2-0.3v-0.1c0-0.3-0.3-0.5-0.6-0.5
		c-0.3-0.2-0.5-0.5-0.5-0.9c0.3-0.3,0.8-0.3,1.2,0l0,0c0,0.2,0.3,0.4,0.5,0.3c0.2,0,0.4,0,0.5-0.3c0.1-0.4,0.3-0.7,0.6-1
		c0.3-0.1,0.5-0.2,0.5-0.6l0,0c0-0.4-0.2-0.6-0.7-0.4c-0.4-0.2-0.5-0.4-0.4-0.7c0.1-0.3,0.4-0.4,0.6-0.3c0,0,0,0,0,0l0.3,0.1l0,0
		c0.1,0.1,0.2,0.2,0.3,0.3c0.3,0.5,0.6,0.6,0.9,0c0.1-0.2,0.3-0.5,0.5-0.7l0,0l0.1-0.1c0.1-0.1,0.2-0.3,0.4-0.3
		c0.4-0.1,0.4-0.6,0.2-0.7L18.8,11.2z M15.6,9.5L15.6,9.5C15.6,9.5,15.6,9.4,15.6,9.5L15.6,9.5z M13.9,7.9
		C13.9,7.9,13.9,7.9,13.9,7.9c0,0.1,0,0.1,0,0.1V7.9L13.9,7.9z M12.6,6.3L12.6,6.3z M7.1,6.8L7.1,6.8z M5,10.3L5,10.3L5,10.3z
		 M3.9,11.7L3.9,11.7z M5.7,12.8L5.7,12.8L5.7,12.8c-0.4-0.4-0.7-0.7-1.1-0.9l0,0c-0.2-0.2-0.4-0.3-0.6-0.5l0,0c0-0.1,0-0.1-0.1-0.1
		l-0.2-0.2v-0.1l0,0c0-0.3,0.4-0.3,0.4-0.6c0.1-0.1,0.2-0.1,0.3,0c0.1,0.1,0.2,0.1,0.4,0.2l0,0h0.1l0,0c0.3,0.1,0.5,0.1,0.8,0
		c0.3-0.1,0.6-0.3,0.9-0.5l0,0c0.1,0,0.1-0.1,0.2-0.2l0,0C6.9,9.8,7,9.7,7,9.5c0-0.1,0-0.1,0-0.2L6.7,8.8c0-0.1,0-0.1-0.1-0.2
		L6.5,8.3c0.2-0.1,0.3-0.4,0.6-0.5l0,0c0.1,0.1,0.1,0.1,0.2,0.1h0.1l0.1,0.1C7.7,8,7.8,8.1,7.9,8c0.5,0.1,1,0,1.3-0.3
		c0.4-0.3,0.5-0.9,0.2-1.3l0,0c0,0,0-0.1,0-0.1V6.3c0-0.1-0.1-0.1-0.2-0.1c0,0,0-0.1-0.1-0.1C9.1,5.9,9,5.7,8.8,5.6l0,0L9,5.4
		l0.5-0.6h0.1c0,0,0.1,0,0.1-0.1c0.1-0.4,0.3-0.4,0.6-0.2l0,0c0.1,0.1,0.2,0.3,0.4,0.3v0.1c0.3,0.3,0.6,0.7,0.9,1l0,0
		c-0.1,0.1-0.2,0.2-0.2,0.3c-0.1,0.3-0.4,0.4-0.4,0.8l0,0c-0.3,0.3-0.6,0.7-0.9,0.9C9.7,8.1,9.5,8.4,9.2,8.7l0,0L9,9L8.6,9.4
		C8.5,9.5,8.3,9.6,8.3,9.7c-0.1,0-0.1,0.1-0.1,0.2C8.1,9.9,8.1,9.9,8,10h0l-0.5,0.4l0,0c-0.2,0.1-0.3,0.3-0.4,0.5L7,11.1
		c-0.1,0-0.3,0.1-0.3,0.3l0,0C6.3,11.7,5.9,12.2,5.7,12.8z M12.2,16.5c-0.1,0.1-0.2,0.2-0.2,0.3l0,0c-0.1,0-0.2,0.2-0.2,0.3
		s-0.2,0.2-0.3,0s-0.6-0.4-0.9-0.6c-0.8-0.6-1.6-1.2-2.4-1.7l0,0c0-0.1-0.1-0.2-0.2-0.2c-0.3-0.2-0.5-0.4-0.8-0.5l0,0
		c0-0.1-0.1-0.1-0.2-0.1c0,0,0,0,0-0.1c-0.1-0.2-0.3-0.4-0.5-0.4H6.3c0-0.1,0-0.1,0-0.2c0.1,0,0.1-0.1,0.1-0.1
		c0.2-0.4,0.5-0.6,0.7-1c0.1-0.1,0.3-0.2,0.4-0.4l0,0l0.3-0.4l0,0l0.1-0.1l0,0c0.2-0.1,0.3-0.4,0.5-0.6c0.1,0,0.1-0.1,0.1-0.1l0,0
		c0.1-0.1,0.2-0.2,0.3-0.3l0.3-0.4c0.3-0.4,0.7-0.7,1-1s0.7-0.6,0.9-1l0,0c0.1-0.1,0.2-0.2,0.2-0.3c0.2-0.2,0.3-0.4,0.4-0.6L12,6.7
		c0.1-0.1,0-0.3,0.2-0.4c0,0,0.1,0,0.1,0l0,0c0.1,0.1,0.1,0.2,0.2,0.2l0,0C12.8,6.8,13,7,13.3,7.3l0.3,0.4c0,0.1,0.1,0.1,0.1,0.1
		c0.2,0.2,0.4,0.4,0.6,0.6c0.4,0.3,0.7,0.6,1,0.9c0.3,0.4,0.6,0.6,1.1,0.8l0,0c0.1,0.3,0.4,0.5,0.6,0.6l0.1,0.1c0,0,0.1,0.1,0.1,0.1
		c0.1,0.1,0,0.1,0,0.2c-0.1,0.1-0.1,0.2-0.1,0.3c-0.3,0.4-0.7,0.8-1,1.1s-0.9,0.9-1.3,1.4l-1.4,1.6l0,0h-0.1c-0.4,0.3-0.7,0.6-1,1
		C12.2,16.4,12.2,16.5,12.2,16.5L12.2,16.5L12.2,16.5z M16.2,13.2L16.2,13.2L16.2,13.2z M20.1,13.6c-0.1,0.2-0.4,0.3-0.4,0.5l0,0
		c-0.2-0.1-0.4-0.3-0.6-0.4c-0.7-0.4-1.6-0.1-2,0.7c-0.1,0.1-0.1,0.2-0.1,0.3c0,0.4,0.1,0.8,0.3,1.1c0.2,0.2,0.2,0.4,0,0.6
		c0,0-0.1,0.1-0.1,0.1l0,0c-0.1-0.1-0.2-0.1-0.2-0.1c0,0,0-0.1,0-0.1c-0.1-0.1-0.3-0.2-0.5-0.1c-0.4,0-0.8,0.2-1.2,0.4
		c-0.4,0.2-0.6,0.6-0.4,1c0.1,0.3,0.2,0.6,0.4,0.9c0.2,0.3,0.3,0.6-0.1,0.9c-0.1,0-0.1,0.2-0.2,0.3s-0.1,0.1-0.1,0.1h-0.1l-0.2-0.2
		l-0.4-0.3c0,0,0,0,0-0.1c-0.5-0.5-1.1-1-1.7-1.3c0,0-0.1,0-0.1,0l0,0l0.1-0.2c0.4-0.3,0.6-0.6,0.8-1c0.1-0.1,0.3-0.1,0.3-0.2l0,0
		c0.1-0.1,0.2-0.2,0.2-0.3l0,0c0.1-0.1,0.3-0.2,0.4-0.4c0.1-0.1,0.1-0.2,0.2-0.3c0.5-0.4,0.8-0.9,1.3-1.3c0.4-0.5,0.8-1,1.3-1.4l0,0
		c0.1-0.2,0.4-0.3,0.5-0.5s0.2-0.2,0.3-0.3l0.2-0.3h0.1c0.1-0.1,0.2-0.1,0.3-0.1c0.1,0.1,0.2,0.2,0.4,0.3l0.4,0.5l0.2,0.2
		c0.3,0.3,0.5,0.5,0.8,0.7C20.1,13.3,20.3,13.4,20.1,13.6L20.1,13.6z"/>
	<path class="st0" d="M12.1,13v-0.2l0,0c0-0.1-0.1-0.3-0.2-0.3c0-0.1-0.1-0.1-0.2-0.1c-0.1,0-0.1,0-0.1,0.1c0.1,0.3,0.1,0.3-0.1,0.3
		l-0.1-0.1l0,0l-0.1-0.2l0,0c-0.1-0.2-0.1-0.3,0-0.4s0-0.1,0-0.2c0-0.1-0.1-0.1-0.2-0.1c-0.1,0-0.2,0.1-0.2,0.3
		c0.1,0.3,0.3,0.6,0.5,0.8c0.1,0.1,0.1,0.1,0.2,0.1C11.8,13.2,12,13.2,12.1,13L12.1,13C12.2,13.1,12.2,13.1,12.1,13L12.1,13z"/>
	<path class="st0" d="M11.2,13.4c-0.2-0.2-0.4-0.4-0.6-0.5s-0.2-0.2-0.3-0.1s0,0.1,0.1,0.2l0.7,0.6c0,0.1,0.1,0.1,0.2,0.1
		c0,0,0.1,0,0.1-0.1S11.3,13.4,11.2,13.4z"/>
	<path class="st0" d="M12.7,10.3c0.1,0.1,0.1,0,0.2,0s0.1,0,0.1-0.1s0.1,0.1,0.2,0.1c0.1,0.1,0.2,0.2,0.3,0.2l0,0l0.5,0.4
		c0.1,0.1,0.2,0.1,0.3,0.1s-0.1-0.2-0.1-0.2l0,0c-0.1-0.1-0.3-0.3-0.5-0.4l0,0l-0.3-0.3l0,0c0,0,0-0.1-0.1-0.1s0,0,0-0.1V9.8
		c0.1,0,0,0,0-0.1l0,0l0,0c0-0.1-0.1-0.1-0.2-0.2c-0.1-0.1-0.1,0-0.2,0.1c0,0.1-0.1,0.2-0.2,0.3c0,0,0,0.1,0,0.1
		C12.6,10.2,12.7,10.2,12.7,10.3z"/>
	<path class="st0" d="M9.9,14.5c-0.1-0.1-0.2-0.1-0.2,0s-0.1,0-0.1,0.1 M9.6,14.6c0,0.1,0.1,0.2,0.1,0.2l0,0c0,0,0.1,0.1,0.2,0.1
		c0.2,0.1,0.2,0,0.2-0.1s-0.1-0.2-0.2-0.3L9.6,14.6z"/>
	<path class="st0" d="M13.8,9.8c0.1,0.1,0.3,0.2,0.4,0.1l0,0V9.9l0,0l0,0c0-0.1,0-0.1-0.1-0.2l0,0c-0.2-0.2-0.4-0.2-0.4-0.1
		S13.7,9.8,13.8,9.8z"/>
	<path class="st0" d="M12.8,11.8L12.8,11.8c-0.2,0-0.3,0-0.5,0c-0.1,0-0.1-0.1-0.2-0.2c0-0.1-0.1-0.2-0.1-0.3l0,0
		c0-0.1,0-0.2-0.1-0.2l0,0l-0.1-0.1c-0.1,0-0.1,0-0.2,0c0,0,0,0.1,0,0.1l0.1,0.4c0,0.1,0,0.1-0.1,0s-0.1-0.1-0.2-0.1
		s-0.1-0.1-0.2-0.1s0,0.1,0.1,0.2c0,0,0.1,0.1,0.1,0.1c0,0,0.1,0.1,0.1,0.1c0.1,0.1,0.2,0.2,0.3,0.3l0,0c0.1,0.1,0.3,0.3,0.4,0.4
		c0.1,0,0.2,0.1,0.2,0c0,0,0-0.1,0-0.1l-0.2-0.1c0.1,0,0.2,0,0.3,0c0.1,0,0.2,0,0.2,0s0.1,0,0-0.1C13,12,12.9,11.9,12.8,11.8z"/>
	<path class="st0" d="M10.9,14c-0.2-0.2-0.4-0.4-0.6-0.6c0-0.1-0.1-0.1,0-0.1c0,0,0.1-0.1,0.1-0.1c0,0,0-0.1,0-0.2
		c-0.1-0.1-0.1-0.1-0.2-0.1c-0.1,0-0.1,0-0.1,0c0,0.1-0.1,0.1-0.1,0.2c-0.1,0.1-0.1,0.3-0.2,0.4c-0.1,0-0.1,0.1,0,0.2
		s0.2,0.1,0.2,0.1l0,0c0.1-0.1,0.2-0.1,0.4,0.1l0.1,0.1l0,0c0.1,0.1,0.1,0.1,0.2,0.2c0.2,0.2,0.2,0.2,0.3,0.1S11.1,14.2,10.9,14z"/>
	<path class="st0" d="M12.2,11c0.1,0.1,0.2,0.2,0.4,0.3s0.3,0.3,0.4,0.4l0.1,0.1c0,0,0,0,0.1,0.1c0.1,0.1,0.2,0.1,0.2,0
		c0.1-0.1,0.1-0.2,0.1-0.3l0,0c0,0,0.1,0,0.1-0.1v-0.1c0.1,0,0.1,0,0.1-0.1s0-0.1-0.1-0.2l0,0c-0.1-0.1-0.2-0.1-0.2,0l-0.1,0.1
		c-0.1,0.1-0.1,0.1-0.2-0.1v-0.1l0,0l0,0l0-0.1l0,0c0,0,0.1,0,0.1-0.1s0-0.1-0.1-0.2s-0.2-0.1-0.2,0S12.6,11,12.6,11l0,0
		c-0.1,0-0.1,0-0.1-0.1s-0.1-0.1,0-0.1c0,0,0-0.1,0-0.1c0.1,0,0.1-0.1,0.1-0.2c0,0,0-0.1,0-0.1s-0.3-0.2-0.4-0.1
		c0,0.1-0.1,0.1-0.1,0.2l0,0c0,0,0,0-0.1,0C11.9,10.8,11.9,10.8,12.2,11z"/>
</g>
</svg>
