<svg id="圖層_1" data-name="圖層 1" xmlns="http://www.w3.org/2000/svg" viewBox="0 0 56 56"><defs><style>.cls-1{fill:#565a5c;}</style></defs><path class="cls-1" d="M47.21,17.78H8.79a4.66,4.66,0,0,1-4.64-4.65h0A4.66,4.66,0,0,1,8.79,8.48H47.21a4.66,4.66,0,0,1,4.64,4.65h0A4.66,4.66,0,0,1,47.21,17.78Z"/><path class="cls-1" d="M47.21,32.65H8.79A4.66,4.66,0,0,1,4.15,28h0a4.66,4.66,0,0,1,4.64-4.65H47.21A4.66,4.66,0,0,1,51.85,28h0A4.66,4.66,0,0,1,47.21,32.65Z"/><path class="cls-1" d="M47.21,47.52H8.79a4.66,4.66,0,0,1-4.64-4.65h0a4.66,4.66,0,0,1,4.64-4.65H47.21a4.66,4.66,0,0,1,4.64,4.65h0A4.66,4.66,0,0,1,47.21,47.52Z"/></svg>