<?xml version="1.0" encoding="utf-8"?>
<!-- Generator: Adobe Illustrator 25.1.0, SVG Export Plug-In . SVG Version: 6.00 Build 0)  -->
<svg version="1.1" id="圖層_1" xmlns="http://www.w3.org/2000/svg" xmlns:xlink="http://www.w3.org/1999/xlink" x="0px" y="0px"
	 viewBox="0 0 24 24" style="enable-background:new 0 0 24 24;" xml:space="preserve">
<!-- <style type="text/css">
	.st0{fill:#FFFFFF;}
</style> -->
<path class="st0" d="M23,11.3c-0.1-0.2-0.3-0.2-0.5-0.2c-0.4,0-0.9,0-1.3,0c-0.7-0.1-1.4-0.2-2.1-0.5c-0.8-0.2-1.5-0.5-2.1-1.1
	c-0.1-0.1-0.3-0.2-0.1-0.4C17.5,8.6,18,8,18.3,7.3c0.3-0.4,0.5-0.8,0.6-1.3c0-0.2,0-0.4-0.2-0.4c-0.3,0-0.7,0.1-1,0.3
	c-0.8,0.7-1.8,1.4-2.8,1.9c-0.9,0.3-1.9,0.5-2.9,0.5c-0.7,0-1.4-0.2-2-0.4c-1-0.3-2-0.6-3-0.9C6.2,6.5,5.5,6.1,5,5.5
	C4.6,5.2,4.5,5.6,4.4,5.7S4.2,6,4.4,6.2c0.1,0.1,0.2,0.2,0.2,0.3C5,7.1,5.3,7.7,5.8,8.3C6,8.5,6,8.8,5.8,9.1
	c-0.4,0.6-0.9,1.2-1.5,1.6c-0.9,0.6-1.9,1-3,1c-0.4,0-0.3,0.3-0.4,0.5s0,0.3,0.2,0.3c0.5,0,1,0.4,1.4,0.4C3.1,13,3.3,13.3,3.4,14
	c0.1,1.3,0.1,2.5,0,3.8c-0.1,0.4,0.1,0.6,0.5,0.5c0.4-0.1,0.7-0.1,1.1-0.1c1.1,0,2.1,0.1,3.2,0.2c0.4,0.1,0.8,0.1,1.2,0.1
	c0.6-0.1,0.8-0.2,0.9-0.9c0.1-0.7,0.4-1.4,0.8-1.9c0.1-0.2,0.3-0.3,0.6-0.2c0.5,0.1,0.9,0.4,1,0.9c0.1,0.5,0.1,1,0.1,1.5
	c0,0.3,0,0.5,0.3,0.6c0.6,0.2,1.2,0.2,1.9,0c1.3-0.3,2.6-0.3,3.9-0.2c0.2,0,0.3,0,0.4-0.2s0.1-0.2,0-0.4v-0.5
	c0.1-0.4,0.1-0.8,0.1-1.2v-0.1v-0.6c0.2-0.2,0-0.5,0.1-0.8c0.1-0.1,0.1-0.3,0.1-0.5c0-0.2-0.1-0.5,0.1-0.7l0.6-0.1
	c1.1-0.2,2.1-0.6,2.9-1.3C23.1,11.8,23.2,11.5,23,11.3z M9,8.4C10.1,8.8,11.3,9,12.4,9c1.4,0,2.8-0.5,3.9-1.2c0.3-0.3,0.6-0.6,1-0.8
	c0-0.1,0.1-0.2,0.2-0.1l-0.2,0.3c-0.2,0.5-0.5,1-0.8,1.1c-0.6,0.1-1,0.5-1.5,0.6c-1.1,0.3-2.3,0.4-3.5,0.3c-0.9-0.1-1.8-0.3-2.7-0.7
	C8.7,8.4,8.4,8.4,8.1,8.2C8.4,8.1,8.7,8.2,9,8.4z M8,8C8,8.1,8,8.1,8,8c-0.1,0.2-0.2,0-0.4,0C7.8,8,7.9,7.9,8,8z M18.2,17.4
	c-1.3,0-2.6,0.1-3.9,0.3c-0.6,0.1-0.7,0-0.8-0.7c0-0.6-0.2-1.1-0.5-1.6c-0.5-0.8-1.5-1-2.3-0.5c-0.2,0.1-0.4,0.3-0.5,0.5
	c-0.3,0.5-0.5,1-0.7,1.6c-0.1,0.5-0.2,0.6-0.7,0.5c-1.2-0.1-2.4-0.2-3.6-0.2c-0.7,0-0.7-0.1-0.8-0.8v-0.3c0-0.8-0.1-1.6-0.2-2.5
	c0-0.2,0-0.3,0.3-0.2c1.6,0.4,3.3,0.6,4.9,0.5C10,14,10.5,14,11,14c0.4,0.1,0.9,0.1,1.3,0c1.6,0,3.2-0.4,4.9-0.3
	c0.2,0,0.4,0,0.6-0.1c0.3-0.1,0.6,0,0.7,0.4h0.1c-0.1,0.1-0.1,0.2,0,0.3l0,0c0,0-0.1,0.1-0.1,0.1c0,0.2,0,0.5-0.1,0.7
	c0,0.1,0,0.2,0,0.3c0,0.4,0,0.7,0,1.1s0.1,0.6-0.1,0.8C18.3,17.4,18.2,17.4,18.2,17.4L18.2,17.4z M19.5,12.5
	c-0.1,0.1-0.1-0.1-0.2-0.2S19.3,12,19.1,12c-0.2,0-0.4,0.2-0.4,0.4c0,0.3-0.3,0.3-0.5,0.3c-0.8,0.1-1.7,0.2-2.5,0.1
	c-1.2,0-2.3,0.3-3.5,0.3s-2.2,0.1-3.3,0.1c-1.3,0.1-2.6-0.1-3.9-0.5c-0.7-0.2-1.5-0.4-2.2-0.6c1.4-0.4,2.6-1.3,3.5-2.4
	c0.2-0.2,0.3-0.5,0.4-0.8c0-0.4,0.2-0.3,0.4-0.2C7.9,9,8.7,9.3,9.5,9.6c2,0.6,4.1,0.6,6-0.1c0.3-0.1,0.4-0.1,0.6,0.2
	c0.6,0.9,1.4,1.4,2.4,1.6c0.2,0,0.3,0.1,0.5,0.2c0.7,0.2,1.5,0.4,2.2,0.4C20.7,12.4,20.1,12.3,19.5,12.5L19.5,12.5z"/>
</svg>
