<svg id="圖層_1" data-name="圖層 1" xmlns="http://www.w3.org/2000/svg" viewBox="0 0 56 56"><defs><style>.cls-1{fill:#565a5c;}</style></defs><path class="cls-1" d="M52.83,31c-.12-1.89-.15-3.79-.27-5.68a42.43,42.43,0,0,1-.25-5.41c.09-1.72-.26-3.43-.1-5.17a4.63,4.63,0,0,0-.49-3.33,8.55,8.55,0,0,1-.36-1.08c-.75-3.65-3.53-5.67-7.27-5.63a31.69,31.69,0,0,1-5.68,0c-.15-.25-.39-.16-.61-.2a13.31,13.31,0,0,0-2.61.32c-4.8.23-9.6-.36-14.4.19-2.77.32-5.57.36-8.35.54-.37,0-.81-.13-1,.34h0A37.28,37.28,0,0,1,7.56,8.13a5.71,5.71,0,0,0-3,3.86c-.19.92.05,1.92-.89,2.58-.14.1-.15.44-.15.67-.09,2.91-.07,5.82-.25,8.72-.13,2.09,0,4.17,0,6.25-.08,3.08,0,6.16,0,9.23,0,2.11.11,4.22.29,6.31.28,3.16.79,6.19,4.33,7.56,2.32.89,4.55,2,7.15,1.3a5.42,5.42,0,0,1,.81-.08c3.31-.29,6.64.18,9.92-.19a51.57,51.57,0,0,1,11.66.42c4.12.46,7.74-.85,11.47-2a3,3,0,0,0,1.54-1,10,10,0,0,0,2.35-6.65c-.28-4.39.14-8.79,0-13.18A1.49,1.49,0,0,0,52.83,31Zm-5.39-1.61,0,.24a1.06,1.06,0,0,1-.08.53A11.67,11.67,0,0,1,45.69,35l-.2.49a14,14,0,0,1-1.61,2.73l0,0-.06.08-.06.08a3.71,3.71,0,0,0-.2.32,2.87,2.87,0,0,1-.65.86,5.67,5.67,0,0,1-.75.89l-.4.44-.16.2a8,8,0,0,1-1.4,1.46,4.65,4.65,0,0,1-1.07,1.23,5.24,5.24,0,0,0-.58.57l0,0a1.6,1.6,0,0,1-.49.5,2.6,2.6,0,0,1-.8.73,1.7,1.7,0,0,1-.9.69,1.61,1.61,0,0,1-.5.4,1.78,1.78,0,0,1-.75.56l-.1,0a2.54,2.54,0,0,1-.88.67l-.16.08a3.87,3.87,0,0,1-1.75.71,2.32,2.32,0,0,1-1.14.33c-1.24,0-1.82-1.27-2-1.74l-.1-.18a1.7,1.7,0,0,1-.22-1.66l.11-.93,0-1a.36.36,0,0,0,0-.09,1.16,1.16,0,0,1-.42-.43,5.43,5.43,0,0,0-2.21-.79h-.05l-.15,0a1.64,1.64,0,0,1-.38,0,3.12,3.12,0,0,1-.65-.08,9.79,9.79,0,0,1-2.11.25,8.07,8.07,0,0,1-2.4-.36,3.24,3.24,0,0,1-.85-.15h0a1.6,1.6,0,0,1-.82-.22h-.21A8.76,8.76,0,0,1,14.83,40l-.06,0-.19-.17a1.21,1.21,0,0,1-.53-.52,1,1,0,0,1-.29-.24l-.16-.15-.25-.21A5.08,5.08,0,0,1,12,37.27a7.93,7.93,0,0,1-2.44-4.68,5.08,5.08,0,0,1-.38-1.14,1.25,1.25,0,0,1,0-.32v-.78l0-.23,0-.1,0-.13-.06-.15A1.67,1.67,0,0,1,9,28.51v-.43a1.16,1.16,0,0,1,0-.76,1.89,1.89,0,0,1,.29-1.11,6.28,6.28,0,0,1,.7-2c.06-.12.12-.23.17-.34a9.19,9.19,0,0,1,1-1.9l.27-.43a1.44,1.44,0,0,1,.18-.25l0,0a3.48,3.48,0,0,1,1-1.79c.05-.08.1-.16.16-.24a4.65,4.65,0,0,1,1-1.21,3.83,3.83,0,0,1,.83-.93l.29-.27A2.1,2.1,0,0,1,16.42,16a.89.89,0,0,0,.22-.13l.27-.17a3.68,3.68,0,0,1,1.1-.77l.26-.13a2.17,2.17,0,0,1,1.55-.48h.11a1,1,0,0,1,.37-.07h0l.11-.06a2.06,2.06,0,0,1,1-.44l.06,0h0a1.49,1.49,0,0,1,.9-.34h.18a2.35,2.35,0,0,0,.64-.17,3.78,3.78,0,0,1,1.24-.27h.16l.23,0,.16,0,.08,0a1.16,1.16,0,0,1,.53-.14l.22,0a1.5,1.5,0,0,1,.67-.16.9.9,0,0,1,.23,0,2.19,2.19,0,0,1,.75-.13,1.72,1.72,0,0,1,.39,0,1.87,1.87,0,0,1,.79-.18h.07a1.25,1.25,0,0,1,.36-.05h.18l.94-.14a3.14,3.14,0,0,1,.94-.14,4.79,4.79,0,0,1,.79.07l.3,0h.06a3.71,3.71,0,0,1,.73-.08,3.42,3.42,0,0,1,.79.1v.05H34l.17.09h.13a1.54,1.54,0,0,1,.74.22h.15a3.3,3.3,0,0,1,2.47,1l.2.1a2.85,2.85,0,0,1,1.59,1.13A1.49,1.49,0,0,1,40,15l.13,0a4.8,4.8,0,0,0,.54.19,3.92,3.92,0,0,1,1.13.48.75.75,0,0,1,.17.14A8.19,8.19,0,0,1,44,18.29a1.4,1.4,0,0,1,.47.76,1,1,0,0,1,.36.78,1.54,1.54,0,0,1,.36.64l.44,1,0,.1a1.82,1.82,0,0,0,.16.28,2.34,2.34,0,0,1,.4,1l.19.56a1.93,1.93,0,0,1,.31.76l0,0,.11.17.13.49a2.84,2.84,0,0,0,.09.58,3.85,3.85,0,0,1,.11,1.22,1.16,1.16,0,0,1,.13.84,2.24,2.24,0,0,1,.12.82A2.69,2.69,0,0,1,47.44,29.41Z"/><path class="cls-1" d="M34.77,23.82c-.06-.43-.24-.82-.8-.78s-1-.28-1,.49c0,1,0,1.93,0,2.89-.17.16-.09.33,0,.49-.28.61.13,1.22,0,1.83-.11.13,0,.23,0,.33l-.09.23c-.28,0-.29-.22-.36-.39l-.66-1.5-.84-1.61A7.12,7.12,0,0,0,30,23.34h0l-.21-.11c-.09-.25-.21-.46-.52-.45-.57-.11-.81.18-.85.7-.21.13-.17.37-.25.56,0,0,0,0,0,0h0a22.09,22.09,0,0,0-.12,2.7.47.47,0,0,0-.07.56h0a8.26,8.26,0,0,0-.2,1.41h0a5.6,5.6,0,0,0-.28,1.41c-.25.69,0,1.39,0,2.09s.19,1,1,.83a.47.47,0,0,0,.17,0c.25,0,.52,0,.62-.31h0c0-.28.54-.41.25-.8.05-.13.11-.26.17-.39a22.07,22.07,0,0,0,.21-4.06l.36.19.25.51.18.42h0c.16,1.09.91,1.92,1.27,2.92a2.54,2.54,0,0,0,0-.29,2.54,2.54,0,0,1,0,.29l.36,1.17c.07.24,0,.56.28.71.1.08.23.14.28.24a.78.78,0,0,0,1.06.27.88.88,0,0,0,.53-1,.84.84,0,0,1,.11-.56.39.39,0,0,0,.1-.4c.16-.15,0-.29,0-.43.18-.45,0-.89-.07-1.33a.83.83,0,0,0,.13-.73,2.79,2.79,0,0,0,0-.91s0,0,0-.11c.16-.17,0-.31,0-.46a6.2,6.2,0,0,0,0-2.19A4.31,4.31,0,0,0,34.77,23.82Zm-4.39,1.49a.19.19,0,0,0,0-.08h.13Z"/><path class="cls-1" d="M19.24,31.68a3.31,3.31,0,0,0-.71.14c-.52.22-.67-.06-.73-.49l-.07,0h0l.06,0c.34-.25-.12-.63.13-.9s0-.43,0-.65h0c0-1.05-.05-2.09-.08-3.14a19.28,19.28,0,0,0,.51-2.09c.07-.5.27-1.08-.29-1.49-.13-.24-.29-.42-.6-.25a1,1,0,0,1-1.06,0,1,1,0,0,0-1.1.28c-.27.22-.11.55,0,.83s.19.46.28.7a1.67,1.67,0,0,0-.15.76h0v6c-.17.1-.07.2,0,.3s-.07.4-.1.59c-.41.41.1.7.13,1,.21.3.21.85.66.85a7.14,7.14,0,0,0,2,0c.41,0,.83,0,1.25,0,.61.05,1-.16,1.07-.81l.06-.91C20.43,31.58,19.89,31.53,19.24,31.68Z"/><path class="cls-1" d="M25.47,24.78c.18-.23-.13-.4-.07-.62.08,0,.1-.1.05-.19,0-.32.15-.73-.37-.83-.51.09-.92-.3-1.5-.15s-1,.24-.79.82.09.93.21,1.38a3.81,3.81,0,0,0-.17,1.21h0l-.06.54c-.06.87-.08,1.75-.19,2.61a10.92,10.92,0,0,1-.06,2.14c-.14.12-.07.23,0,.33,0,.41-.56.76,0,1.25s1.22.14,1.82,0c.52,0,.36-.4.42-.68v-.68a.61.61,0,0,0,.1-.55h0a.91.91,0,0,0,.14-.75c-.08-1.19.65-2.28.43-3.49a2.93,2.93,0,0,1,0-1.25A1.17,1.17,0,0,0,25.47,24.78Zm-1.69,2.57h0Z"/><path class="cls-1" d="M42,23.2h0a.28.28,0,0,0-.41-.13h-.34c-.38-.3-.81-.14-1.22-.16l-.22,0a1.84,1.84,0,0,0-.93.06H38.5a.47.47,0,0,0-.66.29h0a.63.63,0,0,0-.21.7,1.82,1.82,0,0,0-.16,1.1,2.5,2.5,0,0,0-.23.94c-.1,1.45-.19,2.91-.31,4.37A2.27,2.27,0,0,0,37,31a.55.55,0,0,0-.06.5.44.44,0,0,0-.08.56c0,.37-.28.69-.14,1.07,0,.16,0,.33,0,.49.13.62.58.6,1.06.55l1-.28a2.38,2.38,0,0,0,1.17.28l.14-.06a.66.66,0,0,0,.62-.1c.76.2,1.09-.22,1.26-.88s.11-1.05-.53-1.28h0L39.58,32c-.38,0-.73-.05-.55-.6A1.27,1.27,0,0,0,39,31v-.19a.29.29,0,0,0,.05-.31c.25-.15.51.17.75,0,.23.12.46.24.72.08h0a.88.88,0,0,0,.64,0c.34.12.53-.09.71-.32s.1-.67.12-1c.06-1.05-.17-1.24-1.25-1.17A2.25,2.25,0,0,1,39.44,28c-.24-.21-.12-.5-.19-.74h-.06l.06,0c-.09-.49.14-1,0-1.49.11-.36.23-.71.73-.63a3.85,3.85,0,0,0,1.17.16c.26,0,.52.06.63-.27a.33.33,0,0,0,.15-.42c0-.23.27-.42.19-.69a.51.51,0,0,0-.1-.66Z"/></svg>