<svg xmlns="http://www.w3.org/2000/svg" viewBox="0 0 168.45 207"><defs><style>.cls-1{fill:#e3e3e1;}.cls-2{fill:#77695a;}.cls-3{fill:#fefefe;}.cls-4{fill:none;}</style></defs><g id="圖層_1" data-name="圖層 1"><path class="cls-1" d="M138.34,148.13c2.27,2.59,4.82,4.89,7.18,7.4.9.95,1.48,3,2.25,4.12,1.27,1.77,2.48,2.44,4,4,1.28,1.3,2.81,4.62,4,6,.36-1.19,1.14-4.7,1.41-5.91.69-3-.22-5.67-1.25-8.37-.55-1.45.64-3.44-.16-4.72s-4.79-3.34-6-4a34.11,34.11,0,0,0-8-3c-1.77-.53-4.62.47-6.41,0a14.62,14.62,0,0,0-2-.76l-.27,0,.26.34C134.74,145.09,136.8,146.37,138.34,148.13Z"/><path class="cls-2" d="M167.85,165.7c-.14-2.22.21-4.54.08-6.83a29.82,29.82,0,0,0-.5-4.6c-.22-1.05-.77-2-1-2.94a18.4,18.4,0,0,0-1.61-4.68,20.5,20.5,0,0,0-3.44-5.1,26.77,26.77,0,0,0-5.62-4.64c-2.3-1.22-4.46-2.73-7.05-3.32-.48-.11-.85-.18-.88-.86a4.71,4.71,0,0,0-.6-1.82c-1.68-3.3-3.73-6.38-5.67-9.54-.74-1.19-1.15-2.57-1.89-3.75-.89-1.42-1.67-2.89-2.49-4.34-.21-.36,0-.5.05-.81.21-.68,1.06-1.29.59-2a5.69,5.69,0,0,1-.61-2.83,13.17,13.17,0,0,0-.67-4,14.34,14.34,0,0,0-3.67-6.09,24.53,24.53,0,0,0-7.13-4.7,7,7,0,0,0-2.5-.88,3.38,3.38,0,0,1-3.48-2c-.8-1.46-1.63-3.14-2.92-4-2.21-1.5-3.33-3.86-5.24-5.57-1.71-1.52-3.1-3.39-4.82-4.93-.72-.64-1.73-1.48-1.16-2.51a2.63,2.63,0,0,0,0-2.37c-.18-.55-.38-1.09-.53-1.65a16.67,16.67,0,0,0-1.55-4.72A18.88,18.88,0,0,0,99.46,59,12.48,12.48,0,0,0,95,56.37,18.29,18.29,0,0,0,90,55.6c-.69,0-1.82,0-1.89-.47-.22-1.47-1.35-2-2.26-2.81A40.74,40.74,0,0,1,82.13,48c-1.95-2.19-3.14-2.11-5.8-2.29a29,29,0,0,0-6.39.09c-.5.08-1-.3-1.5-.05a13.12,13.12,0,0,1-3.63.7,48.72,48.72,0,0,0-8.29,1.8c-2.94.94-6,1.49-8.84,2.68s-5.7,1.51-8.49,2.48c-.4.14-.74.54-1.13.57a31,31,0,0,0-7.85,1.8c-2.62.87-5.16,2-7.74,2.94a18.21,18.21,0,0,0-3.56,1.41c-1.93,1.29-4.12,2-6.06,3.28S9.2,65.69,7.41,66.87a5.4,5.4,0,0,0-2,2.62c-.37,1-.7,2-1.14,2.89a11.62,11.62,0,0,0-1,5.52A4,4,0,0,1,3,79.66c-.71.31-.41,1.06-.67,1.57-.18,0-.45,0-.4.27a1.18,1.18,0,0,1-.34,1.26,4.3,4.3,0,0,0-.93,3.13,34.32,34.32,0,0,1,.11,5.55c0,.53.14,1,.1,1.57a18.38,18.38,0,0,0-.27,4.31c.31,1.71.06,3.46.4,5.17.24,1.23,0,2.55.39,3.73.66,1.81.32,3.76,1,5.61A27.4,27.4,0,0,1,3,115.05c.4,1.79.89,3.56,1.34,5.34.36,1.41.89,2.58,2.54,3a18.2,18.2,0,0,0,5.25.42,2.11,2.11,0,0,0,2.05-1.58c.36-.82-.12-1.55.1-2.34a16.05,16.05,0,0,0,.11-4,31.93,31.93,0,0,0-.61-4.82L14,111a33.77,33.77,0,0,0,2.3,2.61q2.36,2.84,4.59,5.78c2,2.65,4.33,5.1,6,8,.64,1.07,1.59,2,1.75,3.34.3,2.33.73,4.66.81,7a49.83,49.83,0,0,0,1,7.25c.58,3.23,1.35,6.45,2.11,9.66a35.88,35.88,0,0,1,1.08,4.38A17.19,17.19,0,0,0,35.14,165c1.16,2.3,2.14,3.2,4.84,2.06.36-.15.71-.36,1.07-.52a4.05,4.05,0,0,0,2.49-4.65c-.37-2.15-.58-4.33-1.08-6.47s-.3-4.23-.86-6.31c-.18-.65-.2-1.38-.43-2a7.6,7.6,0,0,1-.42-2.08c.32.35.59.63.85.94a19.67,19.67,0,0,1,2.1,3.67,54.33,54.33,0,0,0,4.11,6.07c.59.83,1.15,1.69,1.74,2.51a15.91,15.91,0,0,1,2.29,3.18,18.3,18.3,0,0,0,2.45,4.32c1.79,2.43,3.4,4.88,3.53,8a1.61,1.61,0,0,0,.08.54c.74,1.83.87,3.81,1.43,5.69.78,2.6,1,5.35,1.53,8,.51,2.38,1.87,4.43,2.14,6.91a41.65,41.65,0,0,0,1.53,5.74c.38,1.51.79,3.16,2.14,4.07,1.86,1.26,4.12,1.54,6.29,1.87.83.13,1.48-.33,1.62-1.38a8.37,8.37,0,0,0,0-2.5,31.18,31.18,0,0,0-1.49-6.77,33.67,33.67,0,0,1-1.4-4.44c-.67-2.54-1-5.16-1.68-7.69-.86-3.14-1.14-6.37-1.88-9.52-.35-1.48-.47-3-.85-4.5a10.62,10.62,0,0,1-.11-4.69,47.81,47.81,0,0,1,1.35-5.33c1.14-3.55,2.69-6.55,6.24-8.42a34,34,0,0,1,10.81-3.65c1.28-.19,2.56-.17,3.83-.37,2.34-.37,4.65-1,7-1.12a66.09,66.09,0,0,0,8.2-1c2.93-.57,5.88-.47,8.81-.83a33.92,33.92,0,0,0,4.65-.52,2.45,2.45,0,0,1,.78-.07,3.25,3.25,0,0,1,.93-.17l.91,0c.59,0,1.17,0,1.76,0a1.71,1.71,0,0,1,.59-.11c2.07,0,4.15,0,6.23-.12a15.63,15.63,0,0,1,2.08.36c1.86.12,3.72,0,5.57.2a49.45,49.45,0,0,1,10,1.83,8.41,8.41,0,0,1,3.67,2.26c1,1.1,2.37,1.89,3.19,3.2,1.53,2.45,2.95,4.86,2.86,8s-.66,6.43-.74,9.65c0,1.25-.24,2.48-.16,3.76,0,.72-.08,1.54-.07,2.37a5,5,0,0,1,.1,1.17c0,.27,0,.54-.08.81l0,.4a5,5,0,0,1-.17,1.64l0,.11a1.73,1.73,0,0,1-.09.42,3.13,3.13,0,0,0-.17,1.08,43.63,43.63,0,0,1-1,7c-.44,2.88-1.25,5.76-1.35,8.66-.06,1.83-1.48,3.5-.54,5.39a.42.42,0,0,1,0,.22c-.35,1.48.1,2.12,1.52,2.7.71.29,1.26-.06,1.89-.05a32.51,32.51,0,0,0,3.56,0c1.59-.15,3.38-1.52,3.92-4.22.65-3.18.83-6.43,1.56-9.6.46-2,.48-4.08,1.14-6.06.9-2.71.53-5.58.91-8.36.13-1,0-2,0-3C167,170.7,168,168.36,167.85,165.7ZM6.69,72c1.42-3.14,4-4.76,6.84-6.27C16,64.42,18.45,63,20.91,61.66a4.3,4.3,0,0,1,.7-.29c3.25-1,6.32-2.47,9.5-3.64A26.52,26.52,0,0,1,34.27,57c2-.47,4.09-.88,6.09-1.54,2.58-.85,5.32-1.17,7.81-2.23s5.26-1.21,7.75-2.25,5.36-1.22,8.06-1.75a44.24,44.24,0,0,1,11.23-1.1c.75.05,1.48-.08,2.23,0,2.13.29,3.15,1.89,4.28,3.38A6.7,6.7,0,0,0,83,52.69c1,.74,1.39,1.89,2.28,2.67,0,0,0,.13-.06.36-1.43-1-3-.34-4.53-.45-1.31-.09-2.7.47-4.09.47a25,25,0,0,1-4.15-.12c-.42-.07-.65.36-1,.41a10.8,10.8,0,0,1-3,.5,5.65,5.65,0,0,0-3.09.77c-1.84.9-3.88,1.13-5.77,1.9a6.43,6.43,0,0,1-2.82-.05,1.45,1.45,0,0,0-.93.12,17.45,17.45,0,0,1-4.16,1.53,6.63,6.63,0,0,0-1.78,1c-1.49,1-3.2.64-4.73,1.15-1.23.41-2.74-.14-3.73,1.07a.61.61,0,0,1-.26.2c-2.5.42-4.28,2.39-6.6,3.13a21.2,21.2,0,0,1-5.17,1.11c-.27,0-.57-.23-1-.44.3.49.52.83-.14.91a10.35,10.35,0,0,1-2.29.31,7.33,7.33,0,0,0-2.62.53,11.74,11.74,0,0,0-3.08,1.08c-1.85,1.07-3.87,1.84-5.46,3.37-1,.92-2.4,1.05-3.59,1.64A9.92,9.92,0,0,0,8.78,77c-1.13,1-2.85,1.15-3.58,2.71A20.64,20.64,0,0,1,6.69,72Zm5.41,48.11c.07.85-.19,1.42-1.34,1.55a11.2,11.2,0,0,1-3-.1A1.9,1.9,0,0,1,6,119.91c-.27-2.47-1-4.84-1.53-7.26a109.57,109.57,0,0,1-1.54-11.86C2.52,96.88,3.19,93,3,89.13a14.55,14.55,0,0,0-.17-2,5,5,0,0,1,.91-3.84c.27-.39.56-.75.83-1.14s.3-.89.95-.58c.09,0,.36-.23.51-.38,2.35-2.39,5.43-3.48,8.45-4.63a2.73,2.73,0,0,0,1.16-.6,14.2,14.2,0,0,1,4.54-3c.37-.19.36-.19.5-1,.47.51.91.31,1.48.15,1.47-.41,2.91-1.07,4.51-.83a4.19,4.19,0,0,0,2-.35c2.74-1,5.64-1.32,8.37-2.28a6.14,6.14,0,0,0,1.56-1c1.49-1.15,3.42-1.41,4.95-2.49a.79.79,0,0,1,.51-.16c2,.18,3.79-.75,5.72-1,.84-.09,1.44-.92,2.32-1.16,1.88-.5,3.58-1.55,5.53-1.87.8-.13,1.56.31,2.39.06,2-.6,4.07-1.31,6.13-1.82,2.59-.64,5.31-.78,8-1.2,2.41-.37,4.85-.13,7.26-.4a8.44,8.44,0,0,1,4,.19c.61.23,1.21-.2,1.84-.22a18.07,18.07,0,0,1,4.76.54c.59.15,1.18.08,1.77.21,3.32.75,5.12,3.3,6.91,5.76A7.87,7.87,0,0,1,102.23,68c.08.74.7,1.42.59,2.48a27.52,27.52,0,0,0-3.39-2.74,9.35,9.35,0,0,0-5.18-2.08,27.73,27.73,0,0,0-4.55-.15c-.8,0-1.58.34-2.42.35-2.26,0-4.54.15-6.78.14a71.31,71.31,0,0,0-8.18.92c-3.17.34-6.37-.13-9.45.59-2,.49-4.12.54-6.16,1.18s-4,1-6,1.67c-1.55.51-3.09,1.09-4.61,1.67a25.47,25.47,0,0,1-5,1.41A9.93,9.93,0,0,0,39,74a31.32,31.32,0,0,1-4.63,1.15c-2.14.53-4.3,1-6.46,1.41-1.84.36-3.62,1-5.46,1.35a16.14,16.14,0,0,0-3.11,1.38,20.51,20.51,0,0,0-5.4,3.4c-2.49,2.29-4.25,5-4.21,8.54a55.09,55.09,0,0,0,1.28,12c.61,2.58.37,5.29.73,7.92.27,2,.35,4,.43,6.07C12.17,118.2,12,119.15,12.1,120.12Zm17.25,1.8c0,1.37.11,2.75.14,4.12,0,.23.17.55-.19.66s-.5-.13-.65-.33a7.86,7.86,0,0,1-1.6-2.23.67.67,0,0,0-.15-.29c-1.62-1.28-2.44-3.22-3.83-4.66-1.13-1.17-2-2.55-3-3.75-2-2.25-4-4.51-5.79-6.94a4.63,4.63,0,0,1-1.06-3.28c.1-1.85-.6-3.72-.82-5.59-.27-2.43-1.11-4.78-.44-7.35.32-1.22.08-2.64.61-3.91a8.75,8.75,0,0,1,3.32-4.2,52.41,52.41,0,0,1,4.5-2.84A28.16,28.16,0,0,1,29,78.77c1.32-.2,2.53-.9,3.87-1.09a52.68,52.68,0,0,0,9.38-2.24c1.7-.57,3.42-1.19,5.13-1.62s3.4-1.38,5.19-1.77,3.28-1.24,5-1.4c2.29-.22,4.46-1.19,6.8-1,1.47.12,2.89-.48,4.36-.32,2,.22,4-.31,6-.34.7,0,1.26-.48,2-.49,2.87,0,5.72-.47,8.61-.35a25.75,25.75,0,0,0,3.9-.27c3-.32,6.05-.41,8.67,1.48.72.53,1.77.94,1.86,2.1,0,.44.46.45.73.56a2.31,2.31,0,0,1,1.16.92,24.48,24.48,0,0,0,3.6,4c2.54,2.6,5.11,5.19,7.39,8,.68.85,1.68,1.28,2.3,2.17,1.2,1.7,2.47,3.37,3.65,5.09.29.44.25,1-.47,1a29.11,29.11,0,0,0-4.2.46,26.52,26.52,0,0,0-8.68,1.17c-2.48.62-5,1.14-7.52,1.62-2,.37-4,.71-5.9,1.24a22.61,22.61,0,0,1-6.07.94,58.14,58.14,0,0,0-7.7.07c-2,.25-4.26,0-6.16,1.14a2.4,2.4,0,0,1-1.56.26c-2.35-.65-4.34.65-6.49,1-2.43.39-4.74,1.3-7.17,1.65a70.19,70.19,0,0,0-8.12,2,34.72,34.72,0,0,0-8,3.42c-1.08.61-2.41.77-3.45,1.42a14.77,14.77,0,0,0-5.2,4.7c-1,1.6-1.21,3.49-2.42,5C29,119.84,29.33,121,29.35,121.92Zm11.42,34.85a1.8,1.8,0,0,1,.11.75,15.72,15.72,0,0,0,.3,4.16,2.08,2.08,0,0,1-1.46,2.81c-.13.06-.26.14-.38.21-1.45.78-2.41.38-2.67-1.35-.72-4.65-2.08-9.16-3.06-13.76-.51-2.36-.89-4.77-1.54-7.12a20.49,20.49,0,0,1-.31-3.71c-.27-3.18-.51-6.36-.89-9.53a25,25,0,0,1,.53-7,13.16,13.16,0,0,1,.71-3.1c0-.06,0-.16,0-.21,1.13-1.48,1.27-3.47,2.59-4.87a13.82,13.82,0,0,1,4.12-2.9,68.29,68.29,0,0,1,12.5-4.94c2.21-.59,4.45-1,6.66-1.58,1.19-.3,2.33-.75,3.51-1.07a13.5,13.5,0,0,1,3.36-.56,6.49,6.49,0,0,0,2.27-.63c1.45-.61,3-.18,4.43-.61,2.12-.64,4.39-.52,6.49-1.27a3.42,3.42,0,0,1,1.68,0,37.59,37.59,0,0,0,7.19.12,28.11,28.11,0,0,0,5.32-1c2-.44,4-.71,5.9-1.18s3.75-.48,5.62-1.06A25.07,25.07,0,0,1,112.34,96c2.48.13,4.7-1,7.09-.94,2,0,4-.53,5.93.18a8.68,8.68,0,0,1,3,1.46c1.46,1.29,3.2,2.33,4.17,4.09,1.11,2,2.29,4,2,6.45-.05.39.3.81.39,1.23.05.27.08.62-.24.79s-.49-.12-.65-.29c-.74-.73-1.49-1.46-2.19-2.23-1.26-1.4-3.08-1.57-4.71-2.08a23.92,23.92,0,0,0-7.87-1c-2.13.06-4.25-.37-6.38,0a11.39,11.39,0,0,1-2.24-.12c-1.61-.05-3.23.21-4.81.14-3.49-.14-6.89.61-10.33.86a53.26,53.26,0,0,0-10,1.66,40.71,40.71,0,0,1-8.63,1.85,33.58,33.58,0,0,1-3.76.2c-.55,0-1,.59-1.58.64A59.46,59.46,0,0,0,65,110c-2.77.53-5.61.67-8.32,1.53a25.93,25.93,0,0,0-8.06,4q-1.5,1.15-3.09,2.19a17.51,17.51,0,0,0-5.34,5.88c-.51.84-1.09,1.62-1.57,2.5-.72,1.31-.47,2.69-.79,4-.61,2.79.17,5.58,0,8.37a9.68,9.68,0,0,0,.41,2.64c.25,1-.28,2.11.22,3.09.76,1.5.62,3.18,1,4.76a16.13,16.13,0,0,1,.6,3.75A11,11,0,0,0,40.77,156.77Zm16.88-.29a16,16,0,0,0-.39,4.28,14.89,14.89,0,0,1-.11,2.89,3.72,3.72,0,0,0,.66,2.49c-.49.38-.52-.11-.67-.36A53,53,0,0,1,53.48,160a25.72,25.72,0,0,0-2.65-3.72c-1.41-1.84-2.65-3.81-3.87-5.78-2-3.16-3.85-6.35-6-9.37-1.11-1.54-1-3.34-.89-5.07a9.77,9.77,0,0,0-.09-2.6,11.14,11.14,0,0,1,.83-6.79,15.64,15.64,0,0,1,3.95-5.23A46.42,46.42,0,0,1,52.22,116c1.6-1,3.53-1.44,5.25-2.26a8.3,8.3,0,0,1,3.4-.68c1.33,0,2.54-.72,3.9-.78,2-.08,3.87-1,5.82-1,1.43-.05,2.61-1,4-.79,2,.29,3.83-.53,5.75-.77,2.35-.29,4.53-1.33,6.91-1.5.54,0,1-.4,1.56-.46,2.86-.35,5.71-.83,8.57-1.13s5.53-.43,8.3-.62a37.61,37.61,0,0,1,5.41-.22c2.82.22,5.65.18,8.47.29,2,.09,4,.52,6.08.57,1.54,0,3.75.38,4.55,1.81.88,1.58,2.59,2.26,3.29,4,.64,1.53,2.21,2.56,2.91,4.09s1.74,2.75,2.21,4.35a11.55,11.55,0,0,0,1.49,2.67c1.08,1.75,2.15,3.51,3.29,5.23a19.49,19.49,0,0,1,1.55,3.82c.07.19.16.42-.17.5a31.33,31.33,0,0,1-7.52,1.18,66.54,66.54,0,0,1-9.44-.71,30.69,30.69,0,0,0-8.19-.42c-1.45.17-3-.1-4.52,0a36,36,0,0,0-5.64.59c-2.73.56-5.39,1.52-8.23,1.55-1,0-2.11.46-3.14.38-1.55-.12-3,.38-4.57.29a18.79,18.79,0,0,0-4.2.57c-3.19.52-6.06,2.1-9.24,2.58a43.78,43.78,0,0,0-5.33,1.09,20,20,0,0,0-5.27,2.19A31.41,31.41,0,0,0,66.71,144c-1.78,1.4-3.77,2.54-5.19,4.4A19.38,19.38,0,0,0,57.65,156.48Zm108,9.7c-.21,2.61-.71,5.21-1.15,7.79a25.36,25.36,0,0,0-.16,3.36,27.14,27.14,0,0,1-.68,7c-.56,1.94-.74,3.94-1.17,5.88s-.75,4.19-1.3,6.25c-.25.93-.06,1.91-.37,2.85a7.52,7.52,0,0,1-.84,1.84,2.42,2.42,0,0,1-2.52,1.13,11,11,0,0,0-3.09,0l.84-.56c-.1-.22-.39-.09-.5-.28.62-3.14.72-6.35,1.22-9.51.28-1.77.53-3.58.73-5.37s.6-3.34.83-5a23.09,23.09,0,0,0,.47-6.59,18,18,0,0,1,.26-4.06c.18-2.08.49-4.16.53-6.24a60.61,60.61,0,0,1,.46-6.46c.1-.78-.57-1.36-.74-2.14a12.91,12.91,0,0,0-3.21-6.53,29.89,29.89,0,0,0-5.3-4.5,22.63,22.63,0,0,0-5.69-2.2c-2-.6-4.13-.53-6.19-.84-2.59-.39-5.21-.2-7.8-.63a24.8,24.8,0,0,0-5.24,0,18,18,0,0,1-5.08,0,2.17,2.17,0,0,0-.76,0,78.37,78.37,0,0,1-10.14,1.09c-2.26,0-4.47.69-6.7.91-1.64.17-3.18.82-4.89.68-2.22-.18-4.38.58-6.56.94a29.54,29.54,0,0,1-4.57.55A28.11,28.11,0,0,0,76.2,148a33.22,33.22,0,0,0-4.53,2.5,10,10,0,0,0-3.7,3.93,29.9,29.9,0,0,0-2.54,7.5,19.08,19.08,0,0,0-.71,6c.14,1.72.65,3.36.92,5,.39,2.43.86,4.86,1.32,7.28.39,2.06.89,4.08,1.2,6.16.21,1.35.9,2.67,1.1,4A26.65,26.65,0,0,0,70.87,196c.87,2.3.84,4.72,1.6,7a1.22,1.22,0,0,1-.15,1.35c-.46.42-.72-.25-1-.25-1.11,0-1.93-.7-2.91-1s-1.3-1.54-1.59-2.48c-.8-2.66-1.4-5.38-2.21-8-.47-1.58-1.18-3.08-1.64-4.68a48.35,48.35,0,0,1-1.07-6.08c-.24-1.59-.91-3-1.16-4.62a69.59,69.59,0,0,1-1.17-7.1c-.12-2.29-.18-4.6-.31-6.89a20.58,20.58,0,0,1,2.88-11.76c1.23-2.09,3.23-3.51,5.18-4.95a32,32,0,0,1,5.24-3.09,23.94,23.94,0,0,1,7.59-1.95,21.63,21.63,0,0,0,6.12-1.83,34,34,0,0,1,3.79-1c2.9-.9,5.92-.41,8.86-1,1.46-.28,3-.15,4.55-.44a28.27,28.27,0,0,0,5.08-1.13,14.76,14.76,0,0,1,4.51-.63c2.93-.2,5.87-.29,8.8-.41a20.12,20.12,0,0,1,4,.35,53.13,53.13,0,0,0,7.36.83c1.3,0,2.65.22,3.95.23a18,18,0,0,0,4.11-.57,14.16,14.16,0,0,1,11.25,1.65c1.91,1.19,3.95,2.18,5.51,3.85a26.89,26.89,0,0,1,4.24,5.23,27.26,27.26,0,0,1,1.95,5.2,37.37,37.37,0,0,1,1.34,4.41,18.87,18.87,0,0,1,.17,2.69A60.63,60.63,0,0,1,165.66,166.18Z"/><path class="cls-1" d="M31.85,114.29a14.77,14.77,0,0,1,5.2-4.7c1-.65,2.37-.81,3.45-1.42a34.72,34.72,0,0,1,8-3.42,70.19,70.19,0,0,1,8.12-2c2.43-.35,4.74-1.26,7.17-1.65,2.15-.35,4.14-1.65,6.49-1a2.4,2.4,0,0,0,1.56-.26C73.77,98.67,76,99,78,98.71a58.14,58.14,0,0,1,7.7-.07,22.61,22.61,0,0,0,6.07-.94c2-.53,3.94-.87,5.9-1.24,2.52-.48,5-1,7.52-1.62a26.52,26.52,0,0,1,8.68-1.17,29.11,29.11,0,0,1,4.2-.46c.72,0,.76-.59.47-1-1.18-1.72-2.45-3.39-3.65-5.09-.62-.89-1.62-1.32-2.3-2.17-2.28-2.84-4.85-5.43-7.39-8a24.48,24.48,0,0,1-3.6-4,2.31,2.31,0,0,0-1.16-.92c-.27-.11-.7-.12-.73-.56-.09-1.16-1.14-1.57-1.86-2.1-2.62-1.89-5.67-1.8-8.67-1.48a25.75,25.75,0,0,1-3.9.27c-2.89-.12-5.74.3-8.61.35-.74,0-1.3.47-2,.49-2,0-4,.56-6,.34-1.47-.16-2.89.44-4.36.32-2.34-.19-4.51.78-6.8,1-1.67.16-3.27,1-5,1.4s-3.39,1.32-5.19,1.77-3.43,1.05-5.13,1.62a52.68,52.68,0,0,1-9.38,2.24c-1.34.19-2.55.89-3.87,1.09a28.16,28.16,0,0,0-8.63,2.56,52.41,52.41,0,0,0-4.5,2.84,8.75,8.75,0,0,0-3.32,4.2c-.53,1.27-.29,2.69-.61,3.91-.67,2.57.17,4.92.44,7.35.22,1.87.92,3.74.82,5.59a4.63,4.63,0,0,0,1.06,3.28C16,110.93,18,113.19,20,115.44c1.07,1.2,1.91,2.58,3,3.75,1.39,1.44,2.21,3.38,3.83,4.66a.67.67,0,0,1,.15.29,7.86,7.86,0,0,0,1.6,2.23c.15.2.35.41.65.33s.2-.43.19-.66c0-1.37-.1-2.75-.14-4.12,0-.9-.36-2.08.08-2.63C30.64,117.78,30.87,115.89,31.85,114.29Z"/><path class="cls-3" d="M119.28,103.65a23.92,23.92,0,0,1,7.87,1c1.63.51,3.45.68,4.71,2.08.7.77,1.45,1.5,2.19,2.23.16.17.33.46.65.29s.29-.52.24-.79c-.09-.42-.44-.84-.39-1.23.28-2.46-.9-4.45-2-6.45-1-1.76-2.71-2.8-4.17-4.09a8.68,8.68,0,0,0-3-1.46c-2-.71-4-.16-5.93-.18-2.39,0-4.61,1.07-7.09.94a25.07,25.07,0,0,0-8.57,1.34c-1.87.58-3.77.61-5.62,1.06s-4,.74-5.9,1.18a28.11,28.11,0,0,1-5.32,1,37.59,37.59,0,0,1-7.19-.12,3.42,3.42,0,0,0-1.68,0c-2.1.75-4.37.63-6.49,1.27-1.44.43-3,0-4.43.61a6.49,6.49,0,0,1-2.27.63,13.5,13.5,0,0,0-3.36.56c-1.18.32-2.32.77-3.51,1.07-2.21.56-4.45,1-6.66,1.58a68.29,68.29,0,0,0-12.5,4.94,13.82,13.82,0,0,0-4.12,2.9c-1.32,1.4-1.46,3.39-2.59,4.87,0,0,0,.15,0,.21a13.16,13.16,0,0,0-.71,3.1,25,25,0,0,0-.53,7c.38,3.17.62,6.35.89,9.53a20.49,20.49,0,0,0,.31,3.71c.65,2.35,1,4.76,1.54,7.12,1,4.6,2.34,9.11,3.06,13.76.26,1.73,1.22,2.13,2.67,1.35.12-.07.25-.15.38-.21a2.08,2.08,0,0,0,1.46-2.81,15.72,15.72,0,0,1-.3-4.16,1.8,1.8,0,0,0-.11-.75,11,11,0,0,1-.77-4,16.13,16.13,0,0,0-.6-3.75c-.34-1.58-.2-3.26-1-4.76-.5-1,0-2.06-.22-3.09a9.68,9.68,0,0,1-.41-2.64c.16-2.79-.62-5.58,0-8.37.32-1.32.07-2.7.79-4,.48-.88,1.06-1.66,1.57-2.5a17.51,17.51,0,0,1,5.34-5.88q1.59-1,3.09-2.19a25.93,25.93,0,0,1,8.06-4c2.71-.86,5.55-1,8.32-1.53a59.46,59.46,0,0,1,6.62-1.14c.6,0,1-.67,1.58-.64a33.58,33.58,0,0,0,3.76-.2,40.71,40.71,0,0,0,8.63-1.85,53.26,53.26,0,0,1,10-1.66c3.44-.25,6.84-1,10.33-.86,1.58.07,3.2-.19,4.81-.14a11.39,11.39,0,0,0,2.24.12C115,103.28,117.15,103.71,119.28,103.65Z"/><path class="cls-3" d="M11.7,111.18c-.36-2.63-.12-5.34-.73-7.92a55.09,55.09,0,0,1-1.28-12c0-3.55,1.72-6.25,4.21-8.54a20.51,20.51,0,0,1,5.4-3.4A16.14,16.14,0,0,1,22.41,78c1.84-.39,3.62-1,5.46-1.35,2.16-.43,4.32-.88,6.46-1.41A31.32,31.32,0,0,0,39,74a9.93,9.93,0,0,1,2.17-.63,25.47,25.47,0,0,0,5-1.41c1.52-.58,3.06-1.16,4.61-1.67,2-.66,4-1.06,6-1.67s4.12-.69,6.16-1.18c3.08-.72,6.28-.25,9.45-.59A71.31,71.31,0,0,1,80.5,66c2.24,0,4.52-.12,6.78-.14.84,0,1.62-.3,2.42-.35a27.73,27.73,0,0,1,4.55.15,9.35,9.35,0,0,1,5.18,2.08,27.52,27.52,0,0,1,3.39,2.74c.11-1.06-.51-1.74-.59-2.48a7.87,7.87,0,0,0-1.56-3.85c-1.79-2.46-3.59-5-6.91-5.76-.59-.13-1.18-.06-1.77-.21a18.07,18.07,0,0,0-4.76-.54c-.63,0-1.23.45-1.84.22a8.44,8.44,0,0,0-4-.19c-2.41.27-4.85,0-7.26.4-2.65.42-5.37.56-8,1.2-2.06.51-4.08,1.22-6.13,1.82-.83.25-1.59-.19-2.39-.06-2,.32-3.65,1.37-5.53,1.87-.88.24-1.48,1.07-2.32,1.16-1.93.21-3.73,1.14-5.72,1a.79.79,0,0,0-.51.16c-1.53,1.08-3.46,1.34-4.95,2.49a6.14,6.14,0,0,1-1.56,1c-2.73,1-5.63,1.31-8.37,2.28a4.19,4.19,0,0,1-2,.35c-1.6-.24-3,.42-4.51.83-.57.16-1,.36-1.48-.15-.14.86-.13.86-.5,1a14.2,14.2,0,0,0-4.54,3,2.73,2.73,0,0,1-1.16.6c-3,1.15-6.1,2.24-8.45,4.63-.15.15-.42.42-.51.38-.65-.31-.72.24-.95.58s-.56.75-.83,1.14a5,5,0,0,0-.91,3.84,14.55,14.55,0,0,1,.17,2c.19,3.89-.48,7.75-.12,11.66a109.57,109.57,0,0,0,1.54,11.86c.5,2.42,1.26,4.79,1.53,7.26a1.9,1.9,0,0,0,1.8,1.66,11.2,11.2,0,0,0,3,.1c1.15-.13,1.41-.7,1.34-1.55s.07-1.92,0-2.87C12.05,115.22,12,113.2,11.7,111.18Z"/><path class="cls-1" d="M8.78,77a9.92,9.92,0,0,1,2.4-1.18c1.19-.59,2.63-.72,3.59-1.64,1.59-1.53,3.61-2.3,5.46-3.37a11.74,11.74,0,0,1,3.08-1.08,7.33,7.33,0,0,1,2.62-.53,10.35,10.35,0,0,0,2.29-.31c.66-.08.44-.42.14-.91.46.21.76.45,1,.44a21.2,21.2,0,0,0,5.17-1.11c2.32-.74,4.1-2.71,6.6-3.13a.61.61,0,0,0,.26-.2c1-1.21,2.5-.66,3.73-1.07,1.53-.51,3.24-.15,4.73-1.15a6.63,6.63,0,0,1,1.78-1,17.45,17.45,0,0,0,4.16-1.53,1.45,1.45,0,0,1,.93-.12,6.43,6.43,0,0,0,2.82.05c1.89-.77,3.93-1,5.77-1.9a5.65,5.65,0,0,1,3.09-.77,10.8,10.8,0,0,0,3-.5c.36-.05.59-.48,1-.41a25,25,0,0,0,4.15.12c1.39,0,2.78-.56,4.09-.47,1.51.11,3.1-.52,4.53.45,0-.23.09-.34.06-.36-.89-.78-1.32-1.93-2.28-2.67a6.7,6.7,0,0,1-1.23-1.21c-1.13-1.49-2.15-3.09-4.28-3.38-.75-.1-1.48,0-2.23,0A44.24,44.24,0,0,0,64,49.18c-2.7.53-5.48.66-8.06,1.75s-5.24,1.19-7.75,2.25-5.23,1.38-7.81,2.23c-2,.66-4,1.07-6.09,1.54a26.52,26.52,0,0,0-3.16.78c-3.18,1.17-6.25,2.64-9.5,3.64a4.3,4.3,0,0,0-.7.29C18.45,63,16,64.42,13.53,65.74,10.71,67.25,8.11,68.87,6.69,72A20.64,20.64,0,0,0,5.2,79.74C5.93,78.18,7.65,78,8.78,77Z"/><path class="cls-1" d="M119.6,133.1a30.69,30.69,0,0,1,8.19.42,66.54,66.54,0,0,0,9.44.71,31.33,31.33,0,0,0,7.52-1.18c.33-.08.24-.31.17-.5a19.49,19.49,0,0,0-1.55-3.82c-1.14-1.72-2.21-3.48-3.29-5.23a11.55,11.55,0,0,1-1.49-2.67c-.47-1.6-1.53-2.87-2.21-4.35s-2.27-2.56-2.91-4.09c-.7-1.69-2.41-2.37-3.29-4-.8-1.43-3-1.78-4.55-1.81-2,0-4-.48-6.08-.57-2.82-.11-5.65-.07-8.47-.29a37.61,37.61,0,0,0-5.41.22c-2.77.19-5.54.33-8.3.62s-5.71.78-8.57,1.13c-.57.06-1,.42-1.56.46-2.38.17-4.56,1.21-6.91,1.5-1.92.24-3.74,1.06-5.75.77-1.38-.21-2.56.74-4,.79-2,.07-3.83,1-5.82,1-1.36.06-2.57.73-3.9.78a8.3,8.3,0,0,0-3.4.68c-1.72.82-3.65,1.27-5.25,2.26a46.42,46.42,0,0,0-7.49,5.43,15.64,15.64,0,0,0-3.95,5.23,11.14,11.14,0,0,0-.83,6.79,9.77,9.77,0,0,1,.09,2.6c-.09,1.73-.22,3.53.89,5.07,2.18,3,4.08,6.21,6,9.37,1.22,2,2.46,3.94,3.87,5.78A25.72,25.72,0,0,1,53.48,160a53,53,0,0,0,3.66,5.77c.15.25.18.74.67.36a3.72,3.72,0,0,1-.66-2.49,14.89,14.89,0,0,0,.11-2.89,16,16,0,0,1,.39-4.28,19.38,19.38,0,0,1,3.87-8.1c1.42-1.86,3.41-3,5.19-4.4a31.41,31.41,0,0,1,2.75-1.67,20,20,0,0,1,5.27-2.19A43.78,43.78,0,0,1,80.06,139c3.18-.48,6-2.06,9.24-2.58a18.79,18.79,0,0,1,4.2-.57c1.54.09,3-.41,4.57-.29,1,.08,2.09-.37,3.14-.38,2.84,0,5.5-1,8.23-1.55a36,36,0,0,1,5.64-.59C116.58,133,118.15,133.27,119.6,133.1Z"/><path class="cls-3" d="M165.67,158.92a18.87,18.87,0,0,0-.17-2.69,37.37,37.37,0,0,0-1.34-4.41,27.26,27.26,0,0,0-1.95-5.2,26.89,26.89,0,0,0-4.24-5.23c-1.56-1.67-3.6-2.66-5.51-3.85a14.16,14.16,0,0,0-11.25-1.65,18,18,0,0,1-4.11.57c-1.3,0-2.65-.2-3.95-.23a53.13,53.13,0,0,1-7.36-.83,20.12,20.12,0,0,0-4-.35c-2.93.12-5.87.21-8.8.41a14.76,14.76,0,0,0-4.51.63,28.27,28.27,0,0,1-5.08,1.13c-1.51.29-3.09.16-4.55.44-2.94.58-6,.09-8.86,1a34,34,0,0,0-3.79,1,21.63,21.63,0,0,1-6.12,1.83,23.94,23.94,0,0,0-7.59,1.95,32,32,0,0,0-5.24,3.09c-2,1.44-4,2.86-5.18,4.95a20.58,20.58,0,0,0-2.88,11.76c.13,2.29.19,4.6.31,6.89a69.59,69.59,0,0,0,1.17,7.1c.25,1.57.92,3,1.16,4.62a48.35,48.35,0,0,0,1.07,6.08c.46,1.6,1.17,3.1,1.64,4.68.81,2.66,1.41,5.38,2.21,8,.29.94.52,2.13,1.59,2.48s1.8,1,2.91,1c.32,0,.58.67,1,.25a1.22,1.22,0,0,0,.15-1.35c-.76-2.28-.73-4.7-1.6-7a26.65,26.65,0,0,1-1.61-5.59c-.2-1.37-.89-2.69-1.1-4-.31-2.08-.81-4.1-1.2-6.16-.46-2.42-.93-4.85-1.32-7.28-.27-1.69-.78-3.33-.92-5a19.08,19.08,0,0,1,.71-6,29.9,29.9,0,0,1,2.54-7.5,10,10,0,0,1,3.7-3.93A33.22,33.22,0,0,1,76.2,148a28.11,28.11,0,0,1,10.15-2.54,29.54,29.54,0,0,0,4.57-.55c2.18-.36,4.34-1.12,6.56-.94,1.71.14,3.25-.51,4.89-.68,2.23-.22,4.44-.86,6.7-.91a78.37,78.37,0,0,0,10.14-1.09,2.17,2.17,0,0,1,.76,0,18,18,0,0,0,5.08,0,24.8,24.8,0,0,1,5.24,0c2.59.43,5.21.24,7.8.63,2.06.31,4.22.24,6.19.84a22.63,22.63,0,0,1,5.69,2.2,29.89,29.89,0,0,1,5.3,4.5,12.91,12.91,0,0,1,3.21,6.53c.17.78.84,1.36.74,2.14a60.61,60.61,0,0,0-.46,6.46c0,2.08-.35,4.16-.53,6.24a18,18,0,0,0-.26,4.06,23.09,23.09,0,0,1-.47,6.59c-.23,1.69-.64,3.37-.83,5s-.45,3.6-.73,5.37c-.5,3.16-.6,6.37-1.22,9.51.11.19.4.06.5.28l-.84.56a11,11,0,0,1,3.09,0,2.42,2.42,0,0,0,2.52-1.13,7.52,7.52,0,0,0,.84-1.84c.31-.94.12-1.92.37-2.85.55-2.06.84-4.18,1.3-6.25s.61-3.94,1.17-5.88a27.14,27.14,0,0,0,.68-7,25.36,25.36,0,0,1,.16-3.36c.44-2.58.94-5.18,1.15-7.79A60.63,60.63,0,0,0,165.67,158.92Z"/><path class="cls-2" d="M153.76,165.7a46.84,46.84,0,0,1-4.36-5.64,32.48,32.48,0,0,0-2.89-3.2c-2.45-2.86-5.13-5.51-7.48-8.46-1.59-2-3.78-3.51-5.19-5.67l-.26-.39c-1-.17-1.89-.38-2.83-.6a11.49,11.49,0,0,1,.82,1.45c.86,1.81,2.53,3,3.85,4.48,1.88,2.07,3.76,4.15,5.53,6.32.64.79,1.51,1.31,2.08,2.12a13,13,0,0,0,2.21,2.74A7.94,7.94,0,0,1,147,160.5a44.49,44.49,0,0,0,4.3,5.95c1.81,2,3.44,4.19,5.13,6.3l.25.3c.31-.91.63-1.83,1-2.75C156.36,168.74,155.09,167.19,153.76,165.7Z"/><rect class="cls-4" x="0.49" y="0.49" width="167.47" height="207" transform="translate(168.45 207.99) rotate(-180)"/></g></svg>