<svg id="圖層_1" data-name="圖層 1" xmlns="http://www.w3.org/2000/svg" xmlns:xlink="http://www.w3.org/1999/xlink" viewBox="0 0 760 1780"><defs><style>.cls-1{fill:none;}.cls-2{clip-path:url(#clip-path);}.cls-3{fill:#f2e48e;}</style><clipPath id="clip-path"><rect class="cls-1" y="4" width="760" height="1780"/></clipPath></defs><g class="cls-2"><path class="cls-3" d="M1.07,515.13c7.21-70.07-147.25-369.57,51-471.34S354.57,90,520,44c209-58.13,394.12,92.61,303.1,374.7C739.3,678.4,841.8,765,834.19,907.45c-7.77,145.31-135,294.58-24.41,393.65,144,129,91.85,409.11-85.36,446.19-274.42,57.44-295.14-85.56-494.82-3.66C33.79,1823.94-78.8,1704-96.55,1608.89c-45.4-243.31,112.46-242,84.31-359.31-26.62-111-88.74-192.86-104.28-313.06C-150.58,672.85-15.48,676,1.07,515.13Z"/></g></svg>