<svg xmlns="http://www.w3.org/2000/svg" viewBox="0 0 155.34 207"><defs><style>.cls-1{fill:#77695a;}.cls-2{fill:#e3e3e1;}.cls-3{fill:#fefefe;}.cls-4{fill:none;}</style></defs><g id="圖層_1" data-name="圖層 1"><path class="cls-1" d="M1,30.53a12.86,12.86,0,0,1,.26,1.82,40,40,0,0,1,1.27,8.22c.07,1,.5,2,.47,2.91-.08,2.31.63,4.55.86,6.82a3.77,3.77,0,0,0,2.52,3,2,2,0,0,1,.59.37,1.87,1.87,0,0,0,2,.5,1.8,1.8,0,0,0,.86-2,46.09,46.09,0,0,1-.86-7.47c-.12-1.61-.41-3.22-.65-4.83-.11-.8.12-1.21,1-1.24a32.16,32.16,0,0,0,5.36-.74,10.12,10.12,0,0,1,2.61-.18,6,6,0,0,0,2.68-.19c.73-.27,1.56.45,2.09,1,1.35,1.44,3,2.57,4.32,4a5.29,5.29,0,0,0,1.12.82,38.24,38.24,0,0,1,9.11,8.13c.77.9,1.68,1.67,2.5,2.53,2.42,2.56,5.11,4.88,7.33,7.56,2.78,3.36,6.17,6.09,9.05,9.27,1.83,2,3.5,4.14,5.32,6.14a40.34,40.34,0,0,1,4.57,6.63,27.11,27.11,0,0,1,2.89,6.74c.73,2.71,1.49,5.39,2.11,8.11a14.93,14.93,0,0,1,.66,4.71c-.36,3.15-.11,6.38-.69,9.42-.83,4.31-.66,1.63-1,6-.27,3.1-.19,6.22-.29,9.3a19.72,19.72,0,0,1-.19,2.42,17,17,0,0,0,.54,6.77,21.07,21.07,0,0,0,.42,2.13,5.17,5.17,0,0,0,4.43,3.42,3.69,3.69,0,0,0,2.25-.5,2.92,2.92,0,0,0,1.31-2.46c0-1.24,0-2.48.12-3.72.12-1.53-.1-3.12.74-4.55a.62.62,0,0,0,0-.5c-.71-1.67,0-3.27.44-4.78a40.61,40.61,0,0,0,.78-5.89,10.46,10.46,0,0,1,.74-3.69,6.85,6.85,0,0,0,.5-3.4,1.26,1.26,0,0,1,.58-1.15c1.32-.75,2.23-2,3.89-2.4,1-.23,1.6-1.32,2.24-2.14a7,7,0,0,1,2.57-1.9c1.81-.87,3.25-2.21,4.94-3.23a10,10,0,0,1,2-1.16,10.12,10.12,0,0,0,3.32-2.53c1.14-1.07,2.18-2.26,3.78-2.71a.68.68,0,0,0,.51-.59.49.49,0,0,1,.6-.46c.41,0,.53.35.52.69a23.22,23.22,0,0,1-.12,2.64c-.48,3.47-.42,7-.68,10.41-.24,3.08-1.06,6.09-1,9.18-1.17,1.71-.62,3.81-1.47,5.63-.61,1.3-.08,2.86-.27,4.28-.15,1.1.33,2.11.32,3.18a.67.67,0,0,0,.52.6c1.13.22,2.2.83,3.43.26a7.1,7.1,0,0,1,1.93-.36c2.47-.36,3.57-1.43,3.93-3.8.28-1.83.92-3.6.91-5.23a18.92,18.92,0,0,1,.82-4.6,18.31,18.31,0,0,0,1-5.25c-.1-4,1-7.82,1.08-11.79.05-1.66.15-3.34.28-5,.16-2.15.19-4.33.53-6.46a5.89,5.89,0,0,1,1.93-3.85c.91-.74,1.39-1.87,2.32-2.65,3.19-2.67,6.43-5.33,9.5-8.16a42.92,42.92,0,0,1,6.59-4.94,24.62,24.62,0,0,1,3.11-2.11c.25-.11.41-.48.76-.23s.21.43.18.69c-.29,2.8-.17,5.61-.7,8.38a6.72,6.72,0,0,0,.06,1.48c.1,2.14-.62,4.17-.95,6.23a11.47,11.47,0,0,1-1.17,4c-1,1.82-.89,3.94-.73,6,.08.92-.3,1.87.33,2.75s1.21,1.74,2.78,1.48a23.93,23.93,0,0,0,6.23-1.79,1.75,1.75,0,0,0,.93-.94,16.63,16.63,0,0,0,1.33-5,29.54,29.54,0,0,1,1-6.07,27.77,27.77,0,0,0,1.48-6.62c.14-1.62,0-3.24.16-4.85.09-1.08.64-2.12.81-3.2.3-1.84,1.23-3.56,1.27-5.41.06-2.2-.41-4.41-.24-6.6.13-1.7-.22-3.43.33-5.11,0,0,.05-.08,0-.11-.35-1.86.62-3.68.24-5.59A10.94,10.94,0,0,0,153,42.78c-.68-1-.22-2.11,0-3.15a3.13,3.13,0,0,0,0-1.52c-.47-1.46-.94-2.93-1.37-4.42-.17-.61-.77-.64-1.15-1a30.69,30.69,0,0,0-6.4-3.65,30.68,30.68,0,0,1-3-1.74A42,42,0,0,0,135.4,24c-2.19-.88-4.24-2.14-6.4-3-1.89-.78-3.43-2.54-5.72-2.35-.64.05-1.13-.57-1.68-.86a23.56,23.56,0,0,0-5.11-1.63c-1-.27-1.68-1.15-2.7-1.39a24.34,24.34,0,0,1-6.35-2.58c-2.14-1.2-4.46-1.84-6.65-2.82s-4.38-2.44-7-2.4c-.75,0-1.22-.69-1.94-.92A120.53,120.53,0,0,0,78.66,2.27a12.65,12.65,0,0,0-8,1.16A15.44,15.44,0,0,1,65.8,4.86c-1.35.15-2.69-.66-4.07-.71-3.15-.11-6.34-.8-9.34.88a10.32,10.32,0,0,0-4.93,5c-.25.58-.64.74-1.3.84-1.18.19-2.29.66-3.47.88a16.19,16.19,0,0,0-4.89,1.47c-.06,0-.14.1-.2.09-2.1-.39-3.69.92-5.52,1.38-1.15.29-2.33-.15-3.49-.28a15.15,15.15,0,0,0-4.42.17c-1.43.25-2.82.66-4.22,1-1,.26-2.76,2.92-2.6,4.09,0,.39.07.52-.28.68-1.38.63-2.46,1.71-3.76,2.45a7.14,7.14,0,0,1-5.65.84,19.14,19.14,0,0,0-4.77-.38c-.66,0-1.14.66-1.4,1.19A7.18,7.18,0,0,0,1,30.53Zm150,12a1.46,1.46,0,0,1-1.43-.38,27.41,27.41,0,0,0-6.81-3.59c-2.33-.88-4-2.53-5.93-3.95-.68-.51-1.35-1-2.07-1.44a22.16,22.16,0,0,0-6.23-2.52c-2-.55-3.68-1.89-5.67-2.51a14.75,14.75,0,0,1-3.38-1.39c-2.53-1.57-5.1-3.08-7.67-4.61a3.55,3.55,0,0,0-.86-.53,28.6,28.6,0,0,1-6.73-2.83c-2.09-1.22-4.29-2.19-6.42-3.33S93.2,13.49,91,12.3a34.63,34.63,0,0,0-8.89-3.57c-4-.91-8.09-1.34-12-2.77-.32-.11-.6-.16-.66-.54-.09-.53.39-.6.65-.62,2.37-.26,4.44-1.64,7.06-1.19,1.5.26,3.1.3,4.61.66,3.31.8,6.38,2.34,9.6,3.43,6.14,2.08,12.21,4.35,18.2,6.74,4,1.61,7.89,3.53,11.78,5.39A103.76,103.76,0,0,0,131.9,24.1a44.87,44.87,0,0,1,8,4.19q2.1,1.26,4.27,2.31a18,18,0,0,1,3.58,1.88c2.28,2,3.92,4.46,3.51,7.78,0,.38,0,.76-.09,1.13S151.31,42.36,150.92,42.52Zm-10.6,49.82c.58-1.32.53-2.76.91-4.15a35.14,35.14,0,0,0,1.63-7c.1-1.53.87-3,.74-4.53,0-.52.54-.94.19-1.53a3.17,3.17,0,0,1,0-2.61,7.42,7.42,0,0,0,.21-2,20.91,20.91,0,0,1,.13-3.72,45.28,45.28,0,0,0,.82-6.14c.19-2.86.19-2.86-.8-5.61a2.7,2.7,0,0,1-.14-.4c-.46-2.25-.9-4.51-1.37-6.78a.8.8,0,0,0-.22-.48c-1.63-1.38-2.45-3.52-4.44-4.63-1.61-.9-2.92-2.3-4.67-3a44.47,44.47,0,0,1-6.51-3.26,33.15,33.15,0,0,0-8-3.92,24.75,24.75,0,0,1-4-1.58c-4.22-2.17-8.37-4.52-12.66-6.62-1.18-.58-2.26-1.36-3.48-1.82a21,21,0,0,1-4.08-2.11,2.27,2.27,0,0,0-1.23-.58,4.28,4.28,0,0,1-2.15-.7A16.61,16.61,0,0,0,88.57,18c-2.3-.74-4.55-1.74-6.89-2.27C78.75,15,76,13.73,73.05,13.12c-2.55-.53-4.82-2.06-7.42-2.58-3.48-.7-6.87-2.13-10.48-2a7,7,0,0,0-1.43.23A7.28,7.28,0,0,1,50.77,9c-.46-.08-.69-.32-.35-.82a7.48,7.48,0,0,1,4.43-2.64,13.31,13.31,0,0,1,5.64-.25c2.36.36,4.67,1,7,1.38,1.59.27,3.11,1,4.67,1.23,4.54.62,8.84,2.25,13.25,3.3,2.32.55,4.34,2,6.51,2.95,2.78,1.28,5.5,2.69,8.28,4,3.57,1.64,7,3.65,10.59,5.23a19.12,19.12,0,0,1,3.79,1.88,46.28,46.28,0,0,0,12.81,6.3,32.22,32.22,0,0,1,10.75,5.69,16.52,16.52,0,0,0,2.36,1.59c1.44.86,3.07,1.18,4.51,2,1.71,1,3.44,1.87,5.13,2.87,2.62,1.55,3,2.18,2.73,5.24-.23,2.31-.35,4.62-.51,6.93a1.69,1.69,0,0,0,0,.55c.73,2.08.18,4.23.05,6.29a35.56,35.56,0,0,1-1,5.27A65.17,65.17,0,0,0,150,75.65c-.33,3.59-1.48,7-2.28,10.51a.47.47,0,0,1-.06.09,2.56,2.56,0,0,0-.35,2.21c0,.28.12.65,0,.83-.77,1-.35,2.28-.68,3.36-.27.9-.4,1.93-1.56,2.42a28.55,28.55,0,0,1-3.46,1,.89.89,0,0,1-1.16-.8C140.59,94.29,139.88,93.35,140.32,92.34ZM117.54,74.72a38.88,38.88,0,0,0-2.89-6.59A10.6,10.6,0,0,0,113,65.92a30.81,30.81,0,0,1-2.68-2.68,25.87,25.87,0,0,0-2-2.05c-.67-.62-1.63-.75-2.17-1.45-1.72-2.24-4-3.84-6.23-5.55-1.64-1.29-3.57-2.24-5.21-3.58-.58-.47-1.4-.46-2-1a13,13,0,0,0-3.47-2.19c-1.8-.82-3.17-2.2-4.85-3.17a25.61,25.61,0,0,1-5-3.52c-2.17-2.09-5.12-3-7.7-4.43-2.83-1.62-6-2.65-8.8-4.43-3.52-2.24-7.43-3.72-11-6s-7.53-3.64-11-6.16c-2-1.48-4.54-1.89-6.64-3.24-.32-.2-1-.14-.89-.75a1.07,1.07,0,0,1,1.18-.86c.33,0,.68.13,1-.14a6.08,6.08,0,0,1,3-.91c2.24-.43,4.41-1.1,6.64-1.54,2.67-.51,5.15-1.66,7.84-2.13a14.83,14.83,0,0,1,6.15,0,21.14,21.14,0,0,0,3.56,1,15.16,15.16,0,0,1,5.39,1.51c4.38,2.1,9.09,2.81,13.57,4.35a38.5,38.5,0,0,1,6.91,2.63c3.11,1.81,6.44,3,9.62,4.58a77.17,77.17,0,0,1,8.08,4.34c1.4.9,2.85,1.7,4.27,2.51s2.58,1.87,4.2,2a3.26,3.26,0,0,1,1.72.74,3.78,3.78,0,0,0,2.14.9,4.52,4.52,0,0,1,1.78.78,18.78,18.78,0,0,0,5,2.48,30.6,30.6,0,0,1,7.17,3,34,34,0,0,1,4.53,3.1,9.69,9.69,0,0,1,4.06,7.71,6.89,6.89,0,0,0,.68,2.68,7.76,7.76,0,0,1,.68,3,27.3,27.3,0,0,0,.18,4.24,1.28,1.28,0,0,1-.29,1.23,84,84,0,0,1-9.55,8,99.11,99.11,0,0,0-9,7.62,9.18,9.18,0,0,1-1.48,1.24,10,10,0,0,0-2.26,1.94c-.57.63-1.11,1.43-2,1.53-1-.13-1.39-.77-1.18-1.45.4-1.32.2-2.69.53-4A5.15,5.15,0,0,0,117.54,74.72ZM105.07,77a58.42,58.42,0,0,0-3.34-5.64,36.42,36.42,0,0,0-3.76-5,37.75,37.75,0,0,1-3.15-3.54,59.45,59.45,0,0,0-4.18-5.09c-1.38-1.37-3-2.48-4.36-3.88a7,7,0,0,0-1.81-1.48A41.63,41.63,0,0,1,77.21,48c-4.25-3.18-8.89-5.76-13.39-8.62C61,37.55,58,35.89,55.34,33.8a25.15,25.15,0,0,0-3.23-2.19c-1.94-1.06-3.92-2.05-5.85-3.14-1.59-.91-3.17-1.85-4.83-2.63-3.44-1.62-7-2.88-10.57-4.27-3.07-1.22-6.11-2.44-9.42-2.09a4,4,0,0,0-.78.08A1.17,1.17,0,0,1,19.17,19c-.31-.54,0-1,.44-1.39,1.48-1.24,3.43-1.36,5.22-1.83.78-.21,1.43-.79,2.38-.62a19.42,19.42,0,0,1,4.21,1.23c2.16,1,4.17,2.3,6.26,3.41,3.2,1.7,6.4,3.35,9.59,5a42.93,42.93,0,0,1,6.16,3.55,42.66,42.66,0,0,0,4.42,2.85,65.69,65.69,0,0,0,6.07,2.71c2.48,1.1,4.9,2.33,7.3,3.58a79.92,79.92,0,0,1,10.83,6.83,65.06,65.06,0,0,0,8.19,5.54c2.67,1.41,5.13,3.12,7.69,4.66a31.78,31.78,0,0,1,5,4.08c1.38,1.28,2.91,2.37,4.19,3.75.48.52,1.08,1,1.58,1.53a32.54,32.54,0,0,1,4.24,4.84,33.53,33.53,0,0,1,2,4.51,11.51,11.51,0,0,1,1.12,6.11,8.54,8.54,0,0,0-.13,3.21c.63,2.21-.32,4.07-.91,6a2.29,2.29,0,0,0-.09,1,7.23,7.23,0,0,1-.29,3.55,11.39,11.39,0,0,0-.48,5.58,5.56,5.56,0,0,1,.08,1.86c-.38,2.13-.47,4.29-.88,6.42-.53,2.74,0,5.56-.78,8.33a18.67,18.67,0,0,0-1.1,4.61c0,2-1,4-1,6a4.19,4.19,0,0,1-.06,1c-.24.74-.49,1.66-1.13,2a18,18,0,0,1-2.56.92c-1,.35-2-.11-1.91-.85.1-1.35.07-2.72.3-4.08.09-.55-.25-1.19-.08-1.7a63.8,63.8,0,0,0,1.75-8.89,55,55,0,0,0,1-11c-.05-2,.13-3.9.11-5.85a31,31,0,0,0-.25-4c-.24-1.65-.18-3.35-1.05-4.88a.73.73,0,0,1,0-.42,38.58,38.58,0,0,0,0-5.27A13.82,13.82,0,0,0,105.07,77Zm-25,19.4A29.87,29.87,0,0,0,77,89.15c-1.67-2.87-3.23-5.8-5.07-8.62-1.65-2.52-3.35-5-5.08-7.5A22.68,22.68,0,0,0,63,68.85c-1.35-1.14-2.65-2.35-4-3.47a23.38,23.38,0,0,1-4.27-4,12.82,12.82,0,0,0-2.27-2.54c-2.13-1.61-3.71-3.77-5.75-5.49a28.94,28.94,0,0,1-2.93-3c-2.2-2.47-5.16-4.1-7.26-6.78-1.2-1.54-2.88-2.81-4.29-4.28-2.91-3-6.78-4.67-10.37-6.71a30.76,30.76,0,0,1-6.76-4.88,14,14,0,0,0-2.54-2.51c-.65-.4-.32-.7.16-.85A6.88,6.88,0,0,0,15.11,23c2.37-1.92,5.25-2.35,8.29-2.24a16.92,16.92,0,0,1,5.9,1.48c3.24,1.34,6.72,2.13,9.76,3.79,3.8,2.07,7.69,4,11.39,6.19,3,1.83,5.85,3.9,8.72,5.9a37,37,0,0,0,4.26,2.79c1.36.69,2.51,1.69,3.9,2.35a25.68,25.68,0,0,1,5,3.43c.8.64,1.84.73,2.53,1.42,1.08,1.08,2.51,1.59,3.71,2.49,2,1.55,4.46,2.55,6.49,4.15.75.59,1.24,1.42,1.91,2.06a54.72,54.72,0,0,1,5.31,5.35c1.81,2.27,3.58,4.57,5.49,6.75a49.76,49.76,0,0,1,5.06,7.44c1.35,2.27,1.58,4.82,1.91,7.32,0,.5.16,1.15-.1,1.48-.85,1.1-.63,2.36-.73,3.57-.06.68,0,1.36-.1,2-.14,1.11-.31,2.38-1.34,2.93a24.39,24.39,0,0,0-4.17,3.23,81.89,81.89,0,0,1-10.83,7.31,3.92,3.92,0,0,0-1.09.84A10.39,10.39,0,0,1,83,107.72c-.31.17-.57.52-1.06.21a1,1,0,0,1-.45-1.07c.18-2-.39-3.85-.51-5.79A23.68,23.68,0,0,0,80.08,96.38Zm-72.15-60c-.23-1.68-.49-3.37-.77-5.06-.13-.82.32-1.18,1.19-1.22a6.84,6.84,0,0,1,4.5,1.61A51.66,51.66,0,0,1,19,36.51a13.77,13.77,0,0,0-3.95.12c-1.83.31-3.66.63-5.5.9A1.45,1.45,0,0,1,7.93,36.35Zm-6-9.79a1,1,0,0,1,.21-.62c.73-1.42,2-1.61,3.47-1.3a9.88,9.88,0,0,1,3.58.48,5.82,5.82,0,0,1,3,1.29c.42.41.73.93,1.16,1.32a42,42,0,0,0,9.49,6.88A44.12,44.12,0,0,1,28,37.47a72.38,72.38,0,0,1,6.67,5.82,46,46,0,0,0,4.62,4.19c.64.43.95,1.44,1.6,1.77a13.35,13.35,0,0,1,3.37,3c2,2.06,4,4.12,6,6.13.49.5,1.21.73,1.66,1.34a33.85,33.85,0,0,0,6.47,6.94,16.15,16.15,0,0,0,2.18,1.72,10,10,0,0,1,3.33,2.94A60.26,60.26,0,0,1,70,80.13a52.42,52.42,0,0,0,3,5,25.37,25.37,0,0,1,2.24,3.55,36.39,36.39,0,0,1,2.35,5.54,23.86,23.86,0,0,1,1.26,4.85,13.18,13.18,0,0,0,.55,3.35c.64,1.83.31,3.68.48,5.51a11.12,11.12,0,0,1-.68,3.8,16.58,16.58,0,0,0-.53,2.65,22.07,22.07,0,0,0-.61,3.95c-.14,1.75-.61,3.44-.92,5.15a21.54,21.54,0,0,0-.73,4.43c.07,1.49-.43,2.84-.36,4.32a44.14,44.14,0,0,1-.44,5.47c-.15,2-.77,2.1-2.83,2.34a1.24,1.24,0,0,1-1.48-1.23,19.12,19.12,0,0,1-.38-4.47c.13-1.39-.42-2.74,0-4.22s.15-3,.19-4.57a16.87,16.87,0,0,1,.07-2.25c.53-3.43.64-2.57.77-6.06,0-1.55.08-3.09.24-4.64s0-.53-.25-2.17a9.26,9.26,0,0,1,.32-4,11.11,11.11,0,0,0,.44-2c.1-.79-.39-1.51-.37-2.24a14.46,14.46,0,0,0-.77-4.81c-.83-2.66-1.31-5.43-2.18-8.1-.94-2.9-2.71-5.48-4.32-8.11a66.66,66.66,0,0,0-10.69-13,39.67,39.67,0,0,1-3.94-4.16,22.91,22.91,0,0,0-4.39-4.57,24,24,0,0,1-4.59-4.58,46,46,0,0,0-7-7.32c-2.16-1.83-4.2-3.79-6.54-5.46-1.81-1.28-3.41-3-5.19-4.33-3.59-2.74-7-5.75-10.88-8.17a6,6,0,0,0-5.44-.35.88.88,0,0,0-.61,1c.36,1.28.31,2.58.59,3.85.6,2.65.64,5.32,1.12,8a40,40,0,0,1,.14,4.65c.11,1.6.35,3.2.53,4.8a1.62,1.62,0,0,1-.6,1.67c-.76.54-.79-.45-1.22-.62a2.67,2.67,0,0,1-1.64-2.51,15.59,15.59,0,0,0-.5-4.23c-.19-.56.61-.85.23-1.54-1-1.87-1-4-1.22-5.93C3,36.14,2.64,33.9,2.16,31.7,1.76,29.93,2.18,28.28,1.94,26.56Z"/><path class="cls-2" d="M114.65,68.13A10.6,10.6,0,0,0,113,65.92a30.81,30.81,0,0,1-2.68-2.68,25.87,25.87,0,0,0-2-2.05c-.67-.62-1.63-.75-2.17-1.45-1.72-2.24-4-3.84-6.23-5.55-1.64-1.29-3.57-2.24-5.21-3.58-.58-.47-1.4-.46-2-1a13,13,0,0,0-3.47-2.19c-1.8-.82-3.17-2.2-4.85-3.17a25.61,25.61,0,0,1-5-3.52c-2.17-2.09-5.12-3-7.7-4.43-2.83-1.62-6-2.65-8.8-4.43-3.52-2.24-7.43-3.72-11-6s-7.53-3.64-11-6.16c-2-1.48-4.54-1.89-6.64-3.24-.32-.2-1-.14-.89-.75a1.07,1.07,0,0,1,1.18-.86c.33,0,.68.13,1-.14a6.08,6.08,0,0,1,3-.91c2.24-.43,4.41-1.1,6.64-1.54,2.67-.51,5.15-1.66,7.84-2.13a14.83,14.83,0,0,1,6.15,0,21.14,21.14,0,0,0,3.56,1,15.16,15.16,0,0,1,5.39,1.51c4.38,2.1,9.09,2.81,13.57,4.35a38.5,38.5,0,0,1,6.91,2.63c3.11,1.81,6.44,3,9.62,4.58a77.17,77.17,0,0,1,8.08,4.34c1.4.9,2.85,1.7,4.27,2.51s2.58,1.87,4.2,2a3.26,3.26,0,0,1,1.72.74,3.78,3.78,0,0,0,2.14.9,4.52,4.52,0,0,1,1.78.78,18.78,18.78,0,0,0,5,2.48,30.6,30.6,0,0,1,7.17,3,34,34,0,0,1,4.53,3.1,9.69,9.69,0,0,1,4.06,7.71,6.89,6.89,0,0,0,.68,2.68,7.76,7.76,0,0,1,.68,3,27.3,27.3,0,0,0,.18,4.24,1.28,1.28,0,0,1-.29,1.23,84,84,0,0,1-9.55,8,99.11,99.11,0,0,0-9,7.62,9.18,9.18,0,0,1-1.48,1.24,10,10,0,0,0-2.26,1.94c-.57.63-1.11,1.43-2,1.53-1-.13-1.39-.77-1.18-1.45.4-1.32.2-2.69.53-4a5.15,5.15,0,0,0,0-3.2A38.88,38.88,0,0,0,114.65,68.13Z"/><path class="cls-2" d="M77,89.15c-1.67-2.87-3.23-5.8-5.07-8.62-1.65-2.52-3.35-5-5.08-7.5A22.68,22.68,0,0,0,63,68.85c-1.35-1.14-2.65-2.35-4-3.47a23.38,23.38,0,0,1-4.27-4,12.82,12.82,0,0,0-2.27-2.54c-2.13-1.61-3.71-3.77-5.75-5.49a28.94,28.94,0,0,1-2.93-3c-2.2-2.47-5.16-4.1-7.26-6.78-1.2-1.54-2.88-2.81-4.29-4.28-2.91-3-6.78-4.67-10.37-6.71a30.76,30.76,0,0,1-6.76-4.88,14,14,0,0,0-2.54-2.51c-.65-.4-.32-.7.16-.85A6.88,6.88,0,0,0,15.11,23c2.37-1.92,5.25-2.35,8.29-2.24a16.92,16.92,0,0,1,5.9,1.48c3.24,1.34,6.72,2.13,9.76,3.79,3.8,2.07,7.69,4,11.39,6.19,3,1.83,5.85,3.9,8.72,5.9a37,37,0,0,0,4.26,2.79c1.36.69,2.51,1.69,3.9,2.35a25.68,25.68,0,0,1,5,3.43c.8.64,1.84.73,2.53,1.42,1.08,1.08,2.51,1.59,3.71,2.49,2,1.55,4.46,2.55,6.49,4.15.75.59,1.24,1.42,1.91,2.06a54.72,54.72,0,0,1,5.31,5.35c1.81,2.27,3.58,4.57,5.49,6.75a49.76,49.76,0,0,1,5.06,7.44c1.35,2.27,1.58,4.82,1.91,7.32,0,.5.16,1.15-.1,1.48-.85,1.1-.63,2.36-.73,3.57-.06.68,0,1.36-.1,2-.14,1.11-.31,2.38-1.34,2.93a24.39,24.39,0,0,0-4.17,3.23,81.89,81.89,0,0,1-10.83,7.31,3.92,3.92,0,0,0-1.09.84A10.39,10.39,0,0,1,83,107.72c-.31.17-.57.52-1.06.21a1,1,0,0,1-.45-1.07c.18-2-.39-3.85-.51-5.79a23.68,23.68,0,0,0-.88-4.69A29.87,29.87,0,0,0,77,89.15Z"/><path class="cls-3" d="M101.73,71.34a36.42,36.42,0,0,0-3.76-5,37.75,37.75,0,0,1-3.15-3.54,59.45,59.45,0,0,0-4.18-5.09c-1.38-1.37-3-2.48-4.36-3.88a7,7,0,0,0-1.81-1.48A41.63,41.63,0,0,1,77.21,48c-4.25-3.18-8.89-5.76-13.39-8.62C61,37.55,58,35.89,55.34,33.8a25.15,25.15,0,0,0-3.23-2.19c-1.94-1.06-3.92-2.05-5.85-3.14-1.59-.91-3.17-1.85-4.83-2.63-3.44-1.62-7-2.88-10.57-4.27-3.07-1.22-6.11-2.44-9.42-2.09a4,4,0,0,0-.78.08A1.17,1.17,0,0,1,19.17,19c-.31-.54,0-1,.44-1.39,1.48-1.24,3.43-1.36,5.22-1.83.78-.21,1.43-.79,2.38-.62a19.42,19.42,0,0,1,4.21,1.23c2.16,1,4.17,2.3,6.26,3.41,3.2,1.7,6.4,3.35,9.59,5a42.93,42.93,0,0,1,6.16,3.55,42.66,42.66,0,0,0,4.42,2.85,65.69,65.69,0,0,0,6.07,2.71c2.48,1.1,4.9,2.33,7.3,3.58a79.92,79.92,0,0,1,10.83,6.83,65.06,65.06,0,0,0,8.19,5.54c2.67,1.41,5.13,3.12,7.69,4.66a31.78,31.78,0,0,1,5,4.08c1.38,1.28,2.91,2.37,4.19,3.75.48.52,1.08,1,1.58,1.53a32.54,32.54,0,0,1,4.24,4.84,33.53,33.53,0,0,1,2,4.51,11.51,11.51,0,0,1,1.12,6.11,8.54,8.54,0,0,0-.13,3.21c.63,2.21-.32,4.07-.91,6a2.29,2.29,0,0,0-.09,1,7.23,7.23,0,0,1-.29,3.55,11.39,11.39,0,0,0-.48,5.58,5.56,5.56,0,0,1,.08,1.86c-.38,2.13-.47,4.29-.88,6.42-.53,2.74,0,5.56-.78,8.33a18.67,18.67,0,0,0-1.1,4.61c0,2-1,4-1,6a4.19,4.19,0,0,1-.06,1c-.24.74-.49,1.66-1.13,2a18,18,0,0,1-2.56.92c-1,.35-2-.11-1.91-.85.1-1.35.07-2.72.3-4.08.09-.55-.25-1.19-.08-1.7a63.8,63.8,0,0,0,1.75-8.89,55,55,0,0,0,1-11c-.05-2,.13-3.9.11-5.85a31,31,0,0,0-.25-4c-.24-1.65-.18-3.35-1.05-4.88a.73.73,0,0,1,0-.42,38.58,38.58,0,0,0,0-5.27,13.82,13.82,0,0,0-1.53-5.9A58.42,58.42,0,0,0,101.73,71.34Z"/><path class="cls-3" d="M140.32,92.34c.58-1.32.53-2.76.91-4.15a35.14,35.14,0,0,0,1.63-7c.1-1.53.87-3,.74-4.53,0-.52.54-.94.19-1.53a3.17,3.17,0,0,1,0-2.61,7.42,7.42,0,0,0,.21-2,20.91,20.91,0,0,1,.13-3.72,45.28,45.28,0,0,0,.82-6.14c.19-2.86.19-2.86-.8-5.61a2.7,2.7,0,0,1-.14-.4c-.46-2.25-.9-4.51-1.37-6.78a.8.8,0,0,0-.22-.48c-1.63-1.38-2.45-3.52-4.44-4.63-1.61-.9-2.92-2.3-4.67-3a44.47,44.47,0,0,1-6.51-3.26,33.15,33.15,0,0,0-8-3.92,24.75,24.75,0,0,1-4-1.58c-4.22-2.17-8.37-4.52-12.66-6.62-1.18-.58-2.26-1.36-3.48-1.82a21,21,0,0,1-4.08-2.11,2.27,2.27,0,0,0-1.23-.58,4.28,4.28,0,0,1-2.15-.7A16.61,16.61,0,0,0,88.57,18c-2.3-.74-4.55-1.74-6.89-2.27C78.75,15,76,13.73,73.05,13.12c-2.55-.53-4.82-2.06-7.42-2.58-3.48-.7-6.87-2.13-10.48-2a7,7,0,0,0-1.43.23A7.28,7.28,0,0,1,50.77,9c-.46-.08-.69-.32-.35-.82a7.48,7.48,0,0,1,4.43-2.64,13.31,13.31,0,0,1,5.64-.25c2.36.36,4.67,1,7,1.38,1.59.27,3.11,1,4.67,1.23,4.54.62,8.84,2.25,13.25,3.3,2.32.55,4.34,2,6.51,2.95,2.78,1.28,5.5,2.69,8.28,4,3.57,1.64,7,3.65,10.59,5.23a19.12,19.12,0,0,1,3.79,1.88,46.28,46.28,0,0,0,12.81,6.3,32.22,32.22,0,0,1,10.75,5.69,16.52,16.52,0,0,0,2.36,1.59c1.44.86,3.07,1.18,4.51,2,1.71,1,3.44,1.87,5.13,2.87,2.62,1.55,3,2.18,2.73,5.24-.23,2.31-.35,4.62-.51,6.93a1.69,1.69,0,0,0,0,.55c.73,2.08.18,4.23.05,6.29a35.56,35.56,0,0,1-1,5.27A65.17,65.17,0,0,0,150,75.65c-.33,3.59-1.48,7-2.28,10.51a.47.47,0,0,1-.06.09,2.56,2.56,0,0,0-.35,2.21c0,.28.12.65,0,.83-.77,1-.35,2.28-.68,3.36-.27.9-.4,1.93-1.56,2.42a28.55,28.55,0,0,1-3.46,1,.89.89,0,0,1-1.16-.8C140.59,94.29,139.88,93.35,140.32,92.34Z"/><path class="cls-3" d="M1.94,26.56a1,1,0,0,1,.21-.62c.73-1.42,2-1.61,3.47-1.3a9.88,9.88,0,0,1,3.58.48,5.82,5.82,0,0,1,3,1.29c.42.41.73.93,1.16,1.32a42,42,0,0,0,9.49,6.88A44.12,44.12,0,0,1,28,37.47a72.38,72.38,0,0,1,6.67,5.82,46,46,0,0,0,4.62,4.19c.64.43.95,1.44,1.6,1.77a13.35,13.35,0,0,1,3.37,3c2,2.06,4,4.12,6,6.13.49.5,1.21.73,1.66,1.34a33.85,33.85,0,0,0,6.47,6.94,16.15,16.15,0,0,0,2.18,1.72,10,10,0,0,1,3.33,2.94A60.26,60.26,0,0,1,70,80.13a52.42,52.42,0,0,0,3,5,25.37,25.37,0,0,1,2.24,3.55,36.39,36.39,0,0,1,2.35,5.54,23.86,23.86,0,0,1,1.26,4.85,13.18,13.18,0,0,0,.55,3.35c.64,1.83.31,3.68.48,5.51a11.12,11.12,0,0,1-.68,3.8,16.58,16.58,0,0,0-.53,2.65,22.07,22.07,0,0,0-.61,3.95c-.14,1.75-.61,3.44-.92,5.15a21.54,21.54,0,0,0-.73,4.43c.07,1.49-.43,2.84-.36,4.32a44.14,44.14,0,0,1-.44,5.47c-.15,2-.77,2.1-2.83,2.34a1.24,1.24,0,0,1-1.48-1.23,19.12,19.12,0,0,1-.38-4.47c.13-1.39-.42-2.74,0-4.22s.15-3,.19-4.57a16.87,16.87,0,0,1,.07-2.25c.53-3.43.64-2.57.77-6.06,0-1.55.08-3.09.24-4.64s0-.53-.25-2.17a9.26,9.26,0,0,1,.32-4,11.11,11.11,0,0,0,.44-2c.1-.79-.39-1.51-.37-2.24a14.46,14.46,0,0,0-.77-4.81c-.83-2.66-1.31-5.43-2.18-8.1-.94-2.9-2.71-5.48-4.32-8.11a66.66,66.66,0,0,0-10.69-13,39.67,39.67,0,0,1-3.94-4.16,22.91,22.91,0,0,0-4.39-4.57,24,24,0,0,1-4.59-4.58,46,46,0,0,0-7-7.32c-2.16-1.83-4.2-3.79-6.54-5.46-1.81-1.28-3.41-3-5.19-4.33-3.59-2.74-7-5.75-10.88-8.17a6,6,0,0,0-5.44-.35.88.88,0,0,0-.61,1c.36,1.28.31,2.58.59,3.85.6,2.65.64,5.32,1.12,8a40,40,0,0,1,.14,4.65c.11,1.6.35,3.2.53,4.8a1.62,1.62,0,0,1-.6,1.67c-.76.54-.79-.45-1.22-.62a2.67,2.67,0,0,1-1.64-2.51,15.59,15.59,0,0,0-.5-4.23c-.19-.56.61-.85.23-1.54-1-1.87-1-4-1.22-5.93C3,36.14,2.64,33.9,2.16,31.7,1.76,29.93,2.18,28.28,1.94,26.56Z"/><path class="cls-2" d="M150.92,42.52a1.46,1.46,0,0,1-1.43-.38,27.41,27.41,0,0,0-6.81-3.59c-2.33-.88-4-2.53-5.93-3.95-.68-.51-1.35-1-2.07-1.44a22.16,22.16,0,0,0-6.23-2.52c-2-.55-3.68-1.89-5.67-2.51a14.75,14.75,0,0,1-3.38-1.39c-2.53-1.57-5.1-3.08-7.67-4.61a3.55,3.55,0,0,0-.86-.53,28.6,28.6,0,0,1-6.73-2.83c-2.09-1.22-4.29-2.19-6.42-3.33S93.2,13.49,91,12.3a34.63,34.63,0,0,0-8.89-3.57c-4-.91-8.09-1.34-12-2.77-.32-.11-.6-.16-.66-.54-.09-.53.39-.6.65-.62,2.37-.26,4.44-1.64,7.06-1.19,1.5.26,3.1.3,4.61.66,3.31.8,6.38,2.34,9.6,3.43,6.14,2.08,12.21,4.35,18.2,6.74,4,1.61,7.89,3.53,11.78,5.39A103.76,103.76,0,0,0,131.9,24.1a44.87,44.87,0,0,1,8,4.19q2.1,1.26,4.27,2.31a18,18,0,0,1,3.58,1.88c2.28,2,3.92,4.46,3.51,7.78,0,.38,0,.76-.09,1.13S151.31,42.36,150.92,42.52Z"/><path class="cls-2" d="M7.16,31.29c-.13-.82.32-1.18,1.19-1.22a6.84,6.84,0,0,1,4.5,1.61A51.66,51.66,0,0,1,19,36.51a13.77,13.77,0,0,0-3.95.12c-1.83.31-3.66.63-5.5.9a1.45,1.45,0,0,1-1.64-1.18C7.7,34.67,7.44,33,7.16,31.29Z"/><rect class="cls-4" x="0.5" y="0.5" width="154.33" height="207"/></g></svg>