<svg id="圖層_1" data-name="圖層 1" xmlns="http://www.w3.org/2000/svg" viewBox="0 0 56 56"><defs><style>.cls-1{fill:#565a5c;}</style></defs><path class="cls-1" d="M39.42,24.69h0a6.88,6.88,0,0,0-2.25-1.16l-3.84-2.05a25.55,25.55,0,0,0-4-3h0c-1.5-1.06-2.31-.94-3.54.5a15,15,0,0,0-3.13,2.53,47.87,47.87,0,0,0-4,3c-1.18,1.15-3,1.33-4.08,2.59A23.2,23.2,0,0,1,11,29.38a2.59,2.59,0,0,0-1.36,2.1c-.23,2.37-.41,4.75-.6,7.13H9c-.75,2.37-.23,4.85-.6,7.26-.18,1.17.57,2.4.22,3.66a2.92,2.92,0,0,0,.63,2.7h0c.27.85,1,.58,1.58.63,1.16,1.58,2.74.91,4.22.79,1,.38,1.94-.31,3,0a10.45,10.45,0,0,0,5.65-.33.87.87,0,0,0,.54-.13c.47-.41,1.26-.17,1.61-.82h0c.52-.45.33-1,.29-1.57-.28-4.75-1.64-9.56.72-14.17,0-.1.1-.2.16-.3.33-.06.67-.09,1-.18a2.14,2.14,0,0,1,2.86,1.44,12.26,12.26,0,0,1,.88,2.73,27.83,27.83,0,0,1,0,10,2.05,2.05,0,0,0,.89,2.25,2.1,2.1,0,0,0,1.81,1.93,11.71,11.71,0,0,0,4.68,0,5.9,5.9,0,0,1,3.21.14c1.63.59,2.33.54,3.49-.79.61-.92,1.2-1.82.36-3-.23-.31-.15-.84-.2-1.27q-.44-4.31-.88-8.62a2.52,2.52,0,0,0,.16-1.79c-.23-1.76-.85-3.5-.33-5.31.5-2.84.36-5.5-2-7.62C41.89,25.39,40.42,25.57,39.42,24.69Zm.2,19.07ZM36.14,40.5h0a.43.43,0,0,1,0,0l0,0Zm1.69-12.42.06.07Zm-.57-4v0h0v0h0ZM22.47,53a.36.36,0,0,0,0,.11l-.11,0Zm23.18.54,0,0h0Z"/><path class="cls-1" d="M54.05,24a12.17,12.17,0,0,0-2.39-4.12l-2.14-2.58c-2.06-1.85-4-3.9-6.39-5.28a10.33,10.33,0,0,1-1.23-.95,52.73,52.73,0,0,0-9.35-6.92h0C32,3.7,31.64,2.94,30.86,2.7a11.33,11.33,0,0,0-3.5-1.47c-.86-.2-1.84-.51-2.64.31h0A12.67,12.67,0,0,0,22.5,4.21h0l-3,2.2h0c-1.32,1.18-3,1.93-4.18,3.25a13.44,13.44,0,0,0-3.22,2.28,10.76,10.76,0,0,0-2.39,1.74c-.42.2-.87.35-1.09.81h0l-.2.3-.77.51c-.77.18-1,1-1.62,1.37-1,.24-1.41,1.11-2.08,1.72-2.8,1.91-2.92,4.15-.31,6.08a2.57,2.57,0,0,0,1.69,1.16l1,.75a1.7,1.7,0,0,0,1.52.1,14.53,14.53,0,0,0,3.66-1.65.76.76,0,0,0,.23-.13l1.07-.47a2.14,2.14,0,0,0,1.4-.67c2.29-1.75,4.56-3.51,6.84-5.27,1.4-.75,2.29-2.05,3.39-3.11h0c.74-.19,1.15-.83,1.71-1.26s1.08-1.23,2-1.08a2.34,2.34,0,0,0,1.26.75l2.61,2,.09-.11h0l-.09.11c1.47,1.81,3.84,2.44,5.39,4.13.79,1.25,2.21,1.66,3.3,2.51a36.25,36.25,0,0,0,4.71,4,.63.63,0,0,0,.68.41,10.37,10.37,0,0,0,3.46,1.55c2.26.39,3.4-1,4.3-2.73,0,0,0,0,0-.05A1.31,1.31,0,0,0,54.05,24Zm-4.83-2.56,0,0s0,0,0,0ZM20.83,10.91l0,.05h0l-.05,0A.17.17,0,0,1,20.83,10.91ZM47.6,22.65l0,0h0A.05.05,0,0,0,47.6,22.65Zm-6.91-1.08.1,0-.09,0Z"/></svg>