<svg id="圖層_1" data-name="圖層 1" xmlns="http://www.w3.org/2000/svg" viewBox="0 0 56 56"><defs><style>.cls-1{fill:#565a5c;}</style></defs><path class="cls-1" d="M54.94,26.54c.21-.26.08-.52,0-.78a1.47,1.47,0,0,0-.18-1.39c-.13-.63-.27-1.25-.38-1.87a38.48,38.48,0,0,0-1.17-4.85l-.26-.38c-.23-.51-.19-1.11-.56-1.57s0-1.4-.8-1.75l-.24-.22a2.08,2.08,0,0,0-.48-1,.24.24,0,0,1,0,.09.77.77,0,0,0-.07-.16c-.36-.89-.74-1.77-1.12-2.65a7.48,7.48,0,0,0-3.6-4c-.16-.33-.51-.41-.78-.6a1.34,1.34,0,0,0-1-.39c-.25,0-.52.12-.73-.13A6.62,6.62,0,0,0,39.4,2.61c-.28-.28-.75-.07-1-.41,0-.37-.33-.37-.6-.36-.3-.26-.61-.48-1-.17H35.6a4.66,4.66,0,0,0-1.58,0,.13.13,0,0,0-.16-.06c-.35-.14-.53-.67-1.07-.42a3.81,3.81,0,0,1-1.74.23,2.24,2.24,0,0,1-1.2.13,2.39,2.39,0,0,0-1.56.09,6.51,6.51,0,0,0-2.78,0,.12.12,0,0,0-.17.05,1.2,1.2,0,0,1-.23.11l.23-.11a2.79,2.79,0,0,0-1.43.17,6.8,6.8,0,0,0-3.37.78c-.4.35-.77-.13-1.19,0a16.38,16.38,0,0,0-4.87,2.21c-.73.12-1.12.81-1.77,1.06-.51.62-1.51.81-1.61,1.81,0,.08-.18.18-.29.22A3.91,3.91,0,0,0,9.33,9.13L7.68,11.31c-.15,0-.29,0-.32.21a8.79,8.79,0,0,0-2.57,3.17,6.19,6.19,0,0,0-1.17,2.78c-.14.26-.27.52-.4.78l-.14.21c0,.06,0,.12-.05.18-.39.4,0,1-.36,1.39l-.06.7c-.17.43-.6.75-.58,1.27l.07,0h0L2,22l-.36,1.59c-.13.33-.26.66-.4,1a.12.12,0,0,0,0,.15c-.26.45-.11.95-.16,1.42a1.89,1.89,0,0,0-.24,1.19.66.66,0,0,0-.15.79c0,.23-.1.47.14.63-.07.31-.14.61-.22.92-.6.81.08,1.59,0,2.39a7.14,7.14,0,0,0,.77,3.77h0l.22.58h0c.42.88.28,1.91.8,2.76,0,.6.52,1,.59,1.58a.63.63,0,0,0,.21.78l.15.42c.18.17.45.31.54.52.55,1.44,1.82,2.13,3,2.9,0,.14,0,.29.22.32a19.47,19.47,0,0,0,2,2.17c.2.33.34.72.8.78l1.13,1a.63.63,0,0,0,.44.34c.35.12.57.48,1,.45l.2.2s0,0,0,0,0,0,0,0a1.23,1.23,0,0,0,.79.38l.6.39h0c1.15.58,2.16,1.49,3.54,1.54a3.1,3.1,0,0,0,1.56.31c.2.28.5.19.77.2.23.24.52.12.78.15.44.3.93.12,1.4.15s1,.13,1.06-.53h0c.23-.54-.33-.8-.43-1.22A1.07,1.07,0,0,0,23,51c0-1-.14-2-.17-3a19.07,19.07,0,0,0-.23-3.69c0-.33,0-.66,0-1,.15-1.51.29-3,.43-4.54.05-.62.12-1.25-.6-1.58l-.8-.57c-.26-.34-.52-.17-.78,0a7.23,7.23,0,0,0-3-.24c-.33-.34-.66-.06-1,0-.7,0-1.17-.19-1.15-1,0-.52.05-1,.07-1.57,0-.8,0-1.61,1.12-1.72,0,0-.06-.06-.08-.08h0l.07.08.76-.41c.65-.13,1.35.17,2-.22.65.14,1.34-.18,2,.21a1.68,1.68,0,0,0,1.88-1.06c.24-.64-.22-1.15-.31-1.72l.21-.45a5.66,5.66,0,0,0,.19-1.92l0-.59a.85.85,0,0,0,.15-.8,2,2,0,0,0,.23-1c.14-.52.27-1.05.41-1.58.44-.44.31-1.09.59-1.59.12-.13.35-.16.38-.38a6.35,6.35,0,0,1,2.82-2.75h0l.2-.2h0l.53,0a2.37,2.37,0,0,0,1-.33l1-.26a1,1,0,0,0,.84-.15c.64-.15,1.29.29,1.92-.06.74.44,1.63,0,2.37.43.23,1-.46,2.1,0,3.15-.36.35,0,.74,0,1.1h0c-.29.57-.81.32-1.23.31A3.87,3.87,0,0,0,31.67,23a5.41,5.41,0,0,0-2,3.54,6.27,6.27,0,0,0-.18,1.78c-.38.71,0,1.34.21,2a.63.63,0,0,0,.37.6c.08.21.26.19.44.18l.32.22a1.15,1.15,0,0,0,1.26,0h0l.77,0H33a4.32,4.32,0,0,0,1.43-.17c1.46-.23,1.49-.2,1.29,1.34-.25.13-.14.37-.17.57-.33.33-.23.9-.64,1.18a.33.33,0,0,0-.15.38l-.18.24c-.37,0-.89-.27-.75.46s-.37.42-.63.54c-.84.17-1.74-.29-2.55.22a1.27,1.27,0,0,0-.92,1.65,20.33,20.33,0,0,1,.13,2.47,6.09,6.09,0,0,0,0,3.17c0,.38,0,.75,0,1.12a4.67,4.67,0,0,0-.3,2,26.1,26.1,0,0,1,.15,3.42.65.65,0,0,0,.18.59,1.76,1.76,0,0,0-.16,1,1.07,1.07,0,0,0-.06,1.14c-.23.23-.11.45,0,.68,0,.64.31.89.94,1A5.16,5.16,0,0,0,32.84,54l2.36-.2a4.74,4.74,0,0,0,1.68-.12.25.25,0,0,0,.14,0A8.17,8.17,0,0,0,39.5,52.4l.66-.36a.37.37,0,0,0,.37-.23l-.06-.09h0l.05.1c.21-.23.61-.09.77-.4l1.09-.75a.09.09,0,0,0,.12-.08l.62-.69c.57,0,.87-.42,1.21-.78.62-.22.72-1,1.33-1.25a1.35,1.35,0,0,0,.6-.58l2.58-3v0c.49-.81,1.37-1.3,1.76-2.19.24-.34.68-.54.74-1,.06-.16,0-.35.23-.43a6.4,6.4,0,0,0,1-2.06c.24-.62.49-1.23.73-1.85.21-.86.91-1.56.85-2.52a2,2,0,0,0,.55-1.42A3.16,3.16,0,0,0,55,31.28c0-.16,0-.33,0-.5a1.85,1.85,0,0,0,.07-.41c0-.27.09-.55.14-.83C55.39,28.52,54.76,27.56,54.94,26.54Zm-19.54,4h0s0,0,0,0l0,.05Zm-29,12.6.21.16H6.54ZM36.22,29.86a.53.53,0,0,0,0-.12.54.54,0,0,1,.07.13ZM8.83,43.22a.15.15,0,0,1,0,.07.18.18,0,0,1,0,.11A1.13,1.13,0,0,1,8.83,43.22ZM12.31,8.39ZM34,23.2h0ZM3.52,22.66a.6.6,0,0,0,.09.15l-.1-.08S3.51,22.69,3.52,22.66ZM50.94,36.25v0h0v0h0ZM19.32,45.88a.32.32,0,0,0-.09,0l.08,0A.18.18,0,0,1,19.32,45.88ZM24.55,6h0Zm3.14-.56,0,0h0Zm5.09,39.33a.27.27,0,0,1,.22-.3A2.32,2.32,0,0,0,32.78,44.78Zm1.63-.67v0h0ZM30.66,9s0,0,0,0,0,0,0,0ZM13.1,15.29h.06l-.08.15c0-.05,0-.11,0-.16Zm-1.38,3h0Zm2.36-3.14v0l0,0Zm5.3,5.77h.06l0,0A.08.08,0,0,0,19.38,20.89Zm1,3.3h0ZM8.67,17.39l.13.05a.21.21,0,0,0,0,.06l-.09-.11Zm39.58,16h0ZM37.18,44.51h0ZM44.07,22a.28.28,0,0,1,.23-.13A1,1,0,0,1,44.07,22ZM41.32,40Zm1.41-2.77a.29.29,0,0,1,.27,0A.86.86,0,0,1,42.73,37.2ZM45,20.48a.19.19,0,0,0,0,.07h0A.1.1,0,0,1,45,20.48Zm-3.68-3.21Zm-1.11-4.9c0,.19-.06.24-.17.23A.91.91,0,0,0,40.22,12.37Zm-3,32.14Zm-.82-35.6s-.07-.06-.09-.11l.07,0A.69.69,0,0,0,36.36,8.91Zm1.81,6.21h0a.05.05,0,0,0,0,0h0ZM17.9,8l-.12,0v0ZM14,38.65l0,.07h0A.22.22,0,0,1,14,38.65Zm-3.87,2.46,0,0h0ZM20.2,47.86h0Zm3.18-26h0Zm14.4-4.74h0ZM9.94,12.91v0h0ZM2.45,26.15a.05.05,0,0,1,0,0h0v0h0a.12.12,0,0,1,0,0l0,0h0Zm21.91-6.33v0h0ZM35.6,16.08l-.05,0,.05,0ZM48.47,41.92h0ZM33.41,15.49h0a.29.29,0,0,1-.16,0ZM30.27,27.72h0Zm3,.19h0a0,0,0,0,0,0,0h0Zm3.56,22.72Zm12.63-23.1,0-.05v0ZM1.85,35.81h0ZM5.69,13.94v0A.06.06,0,0,1,5.69,13.94ZM1.06,33.31a.09.09,0,0,1,0,0l-.08,0ZM22.18,37.8h0ZM35.58,53h0Z"/><path class="cls-1" d="M50.81,12.7a.18.18,0,0,1,0,.07A.12.12,0,0,0,50.81,12.7Z"/><rect class="cls-1" x="48.23" y="33.45" transform="translate(-9.53 43.91) rotate(-45)"/><rect class="cls-1" x="41.33" y="39.97"/></svg>