<?xml version="1.0" encoding="utf-8"?>
<!-- Generator: Adobe Illustrator 25.2.0, SVG Export Plug-In . SVG Version: 6.00 Build 0)  -->
<svg version="1.1" id="圖層_1" xmlns="http://www.w3.org/2000/svg" xmlns:xlink="http://www.w3.org/1999/xlink" x="0px" y="0px"
	 viewBox="0 0 24 24" style="enable-background:new 0 0 24 24;" xml:space="preserve">
<style type="text/css">
	.st0{fill:#FFFFFF;}
</style>
<g>
	<path class="st0" d="M19.5,7.6c0-0.2-0.1-0.4-0.3-0.6c-0.1-0.1-0.2-0.1-0.3-0.2c-0.1-0.1-0.3,0-0.3-0.1c0,0-0.1,0-0.1,0
		c-0.2,0.2-0.5,0.2-0.6,0.5c-0.1,0.2-0.2,0.4-0.3,0.6c-0.1,0.2,0,0.4,0,0.6c0,0.5-0.1,1-0.1,1.5c0,0.2,0,0.4,0,0.5
		c-0.1,0.6-0.1,1.2-0.3,1.8c-0.1,0.3,0,0.7-0.1,1c0,0.2,0,0.4,0,0.6c-0.2,0.5,0,1,0,1.5c0,0.3-0.1,0.5,0,0.8c0,0.1,0,0.3,0.1,0.4
		c0,0.1,0,0.2,0,0.3c0,0,0.1,0,0.1,0c0,0,0.1,0.1,0.1,0.1c0.1,0.1,0.2,0.2,0.3,0.3c0.1,0.1,0.2,0,0.4,0c0.4,0,0.7-0.2,0.9-0.6
		c0.2-0.2,0.1-0.5,0.1-0.8c0-0.4,0-0.9,0-1.3c0-0.3,0.1-0.6,0-0.9c0-0.1,0-0.3,0-0.4c0-0.3,0.1-0.5,0.1-0.8c-0.1-0.6,0-1.1,0-1.7
		c0-0.3-0.1-0.7,0.2-1c0,0,0-0.1,0-0.1C19.4,9,19.6,8.3,19.5,7.6z"/>
	<path class="st0" d="M15.3,9.7c0-0.6,0-1.2,0-1.8c0-0.2-0.2-0.3-0.2-0.5c-0.1-0.1-0.2-0.1-0.3-0.1c-0.1,0-0.1,0-0.2,0
		c-0.1,0.1-0.3,0-0.4,0c-0.2-0.1-0.4-0.1-0.5,0.1c-0.2,0.2-0.3,0.4-0.1,0.6c0.1,0.3,0.2,0.7,0.2,1.1c-0.1,0.5,0,0.9-0.1,1.4
		c0,0.1,0.1,0.2,0.1,0.3c-0.1,0.2-0.1,0.3-0.1,0.5c0,0.5-0.1,0.9-0.1,1.4c0,0.3,0,0.7,0,1c0,0.3,0.1,0.6,0,0.9c0,0.4,0,0.7,0,1.1
		c0,0.1,0,0.2,0,0.3c0,0.1-0.1,0.2,0.1,0.2c0.1,0.2,0.2,0.4,0.4,0.5c0.2,0.1,0.5,0.1,0.7,0.1c0.1,0,0.3-0.1,0.3-0.2
		c0-0.3,0.1-0.6,0-0.8c0-0.2,0-0.5,0-0.7c0.1-0.4,0.1-0.8,0.1-1.3c0-0.1-0.1-0.2,0-0.3c0.1-0.3,0.1-0.6,0.1-0.9c0-0.2-0.1-0.5,0-0.7
		c0.1-0.3,0-0.6,0.1-0.9c0-0.1-0.1-0.3,0-0.4C15.4,10.2,15.3,9.9,15.3,9.7z"/>
	<path class="st0" d="M12.4,16.5c-0.1-0.3-0.1-0.6-0.1-1c0-0.3,0-0.5,0-0.8c0-0.5-0.1-0.9-0.2-1.4c-0.1-0.5-0.2-1-0.3-1.5
		c0-0.1,0-0.1,0-0.2c-0.1-0.3-0.2-0.5-0.1-0.8c0-0.1,0.1-0.3,0-0.4c-0.1-0.3-0.2-0.6-0.3-0.8c0.1-0.1,0-0.1,0-0.2c0,0,0,0,0,0
		c0,0,0-0.1,0-0.1c-0.1-0.2-0.1-0.4-0.1-0.6c0-0.1,0-0.2-0.1-0.4c-0.1-0.1-0.2-0.2-0.2-0.4c0-0.2-0.2-0.4-0.3-0.5
		C10.2,7.1,9.8,7.1,9.4,7C9.1,6.9,8.7,7,8.4,7C7.7,7.1,7.1,7.1,6.5,7.4c-0.1-0.1-0.2,0-0.3,0.1C6.1,7.5,6,7.6,6,7.7
		C5.9,7.9,5.8,8.2,5.9,8.4c0,0.2,0.1,0.4,0,0.6C5.8,9.3,5.7,9.5,5.7,9.8c0,0.2-0.1,0.4-0.2,0.6c-0.1,0.4,0,0.7-0.2,1.1
		c-0.1,0.4-0.2,0.8-0.3,1.3c0,0.2-0.1,0.5-0.1,0.7c0,0.4-0.1,0.8-0.1,1.1c0,0.2-0.1,0.3-0.1,0.5c0,0.1,0,0.2-0.1,0.4
		c-0.1,0.3-0.2,0.7-0.1,1c0,0.1,0.1,0.2,0.1,0.3c0,0.2,0,0.3,0.2,0.4c0.1,0,0.1,0.1,0.2,0.1c0.4,0.1,0.7,0.1,1-0.2
		c0.2-0.2,0.3-0.3,0.3-0.5c0-0.1,0-0.3,0-0.4c0-0.5,0.2-0.9,0.3-1.4c0-0.3,0.1-0.6,0.5-0.7c0.1,0,0.2-0.1,0.3-0.1
		c0-0.1,0.2,0,0.2-0.1c0.2-0.1,0.4-0.1,0.7-0.1c0.1,0,0.2,0,0.3,0c0.3,0,0.7,0,1,0c0.1,0,0.2,0,0.3,0c0.2,0.2,0.1,0.5,0.2,0.7
		c0.1,0.3,0.1,0.7,0.2,1c0.1,0.3,0.1,0.6,0.2,0.9c0.1,0.2,0.2,0.4,0.3,0.6c0,0.1,0.1,0.1,0.1,0.1c0,0.1,0.1,0.1,0.1,0.2
		c0.1,0.1,0.2,0.1,0.2,0c0.3-0.1,0.6,0,0.9-0.1c0.1,0,0.2,0,0.3-0.1c0.1,0,0.2,0,0.2-0.1C12.4,16.8,12.4,16.6,12.4,16.5z M7.2,12.4
		c0-0.1-0.1-0.1-0.2-0.1c0-0.2,0-0.3,0.1-0.5c0.1-0.4,0.2-0.8,0.2-1.2c0-0.3,0.1-0.6,0.1-1c0-0.2,0.2-0.1,0.2-0.1
		c0.2,0,0.4-0.1,0.6-0.1c0.3,0,0.5,0,0.7,0.1C8.9,9.5,9,9.6,9,9.7c0,0.1,0.1,0.3,0.1,0.4c0,0.3,0.1,0.5,0.2,0.7
		c0.1,0.3,0.1,0.7,0.1,1c0,0.1,0,0.2-0.1,0.2c-0.4,0-0.7,0.2-1,0.2c0,0,0,0,0,0c-0.2-0.1-0.4,0-0.5,0C7.6,12.4,7.4,12.5,7.2,12.4z"
		/>
</g>
</svg>
