<?xml version="1.0" encoding="utf-8"?>
<!-- Generator: Adobe Illustrator 25.1.0, SVG Export Plug-In . SVG Version: 6.00 Build 0)  -->
<svg version="1.1" id="圖層_1" xmlns="http://www.w3.org/2000/svg" xmlns:xlink="http://www.w3.org/1999/xlink" x="0px" y="0px"
	 viewBox="0 0 24 24" style="enable-background:new 0 0 24 24;" xml:space="preserve">
<style type="text/css">
	.st0{fill:#FFFFFF;}
	.st1{fill:#56595C;}
</style>
<g>
	<path class="st0" d="M20.3,7.9C20.2,7.8,20,7.7,20,7.5c-0.1-0.4-0.3-0.7-0.6-1c-0.6-0.7-1.3-1.4-2.1-2c-0.2-0.2-0.5-0.3-0.8-0.2
		c-0.4,0.1-0.9,0.2-1.4,0.1c-0.5,0-1,0-1.6,0c-0.5,0.1-1.1,0.1-1.6,0c-1.2-0.2-2.4-0.1-3.6-0.2c-0.6,0-1.3,0.1-1.9,0.1
		C6.2,4.4,6,4.5,5.9,4.7C5.6,5.2,5.3,5.6,5,6C4.3,6.8,3.7,7.6,3.3,8.5c-0.1,0.2,0,0.3,0.2,0.4c0,0,0,0,0,0h0.3c0.3,0,0.6,0,0.8-0.1
		C4.9,8.9,5,8.9,5,9.1c0,1,0,1.9,0.1,2.9c0,0.3,0,0.4-0.3,0.3s-0.4,0.1-0.3,0.4c0,0,0,0.1,0,0.1c-0.1,0.9-0.1,1.7-0.2,2.5
		c-0.1,0.5,0.1,1-0.3,1.4c0,0-0.3,0.4,0,0.4s0.6,0.1,1,0.2c0.5,0.1,1.1,0.1,1.6,0c0.2,0,0.2,0,0.1,0.2c-0.2,0.3-0.1,0.8,0.1,1.1
		c0.3,0.4,0.7,0.7,1.2,0.8c0.4,0.2,0.9,0,1.2-0.3c0.4-0.5,0.8-1.1,1-1.7c0.1,0,0.2,0,0.3,0c0.3,0,0.6,0.1,0.8,0
		c0.7,0.1,1.4,0.1,2.1,0.1c0.3,0,0.4,0.1,0.5,0.3c0.1,0.3,0.2,0.5,0.4,0.8c0.4,0.9,1.4,1.3,2.3,0.9c0.1,0,0.1-0.1,0.2-0.1
		c0.5-0.3,0.9-0.9,1-1.5c0-0.1,0-0.2,0.2-0.2c0.4,0,0.8,0,1.2-0.1c0.3,0,0.5-0.3,0.4-0.5c0,0,0,0,0,0c-0.1-0.9-0.1-1.8,0-2.7
		c0.1-0.5,0.1-1,0-1.5c0-0.3-0.2-0.3-0.4-0.2c-0.2,0.1-0.4,0.1-0.5,0.1c0-0.1,0.1-0.1,0.1-0.3c-0.1-0.5-0.1-1.1,0-1.6
		c0-0.6,0-1.3,0-1.9l0,0c0.2,0,0.4-0.1,0.5,0c0.2,0.3,0.4,0.2,0.6,0.1c0.2-0.1,0.4-0.1,0.7-0.1c0.1,0,0.1-0.1,0.2-0.2
		C20.7,8.2,20.5,8.1,20.3,7.9z M12.8,5.3c0.3-0.1,0.6-0.1,0.9,0C13.9,5.4,13.9,5.8,14,6c0.2,0.4,0.4,0.9,0.6,1.3l0,0
		C14.7,7.6,14.8,7.8,15,8c0,0.1,0,0.2-0.1,0.2L13,8.2c-0.4,0-0.4,0-0.3-0.4l0,0c0-0.8,0-1.6,0-2.3C12.7,5.3,12.7,5.3,12.8,5.3z
		 M7.2,8.8c0.5,0.1,1,0.1,1.4,0c0.6,0,1.2,0,1.7,0c0.5,0,1,0,1.6,0c1.1,0,2.2,0,3.4,0c0.4,0,0.9,0,1.3,0c0.2,0,0.2,0.1,0.3,0.2
		c0.1,0.3,0.1,0.7,0.1,1c0,0.9,0.1,1.8,0.1,2.7l0,0c-0.3,0-0.5,0-0.8,0c-0.9,0.1-1.9,0.1-2.8,0.1c-0.6,0.1-1.3,0-1.9,0
		c-0.3,0-0.7,0-1,0c-0.5-0.1-1-0.1-1.6-0.1c-0.8,0-1.5-0.1-2.2-0.1c-0.1,0-0.2,0-0.2-0.1c0,0,0,0,0-0.1c0-0.5,0-1,0-1.5
		c0-0.6,0-1.2,0-1.7c0-0.1,0-0.2-0.1-0.3l0,0c0-0.1,0-0.1,0.1-0.1C6.7,8.8,6.9,8.8,7.2,8.8z M5.9,9.3L5.9,9.3c0,0.8-0.1,1.5-0.1,2.3
		c0,0.3-0.1,0.6,0.2,0.9H5.9c-0.1,0-0.1,0-0.2,0H5.6c0.1-1.2,0.1-2.4,0.2-3.6C5.9,9,5.8,9.2,5.9,9.3z M17.6,12.5L17.6,12.5
		L17.6,12.5L17.6,12.5c0-0.2,0-0.4,0-0.6l0,0v-0.3l0,0c0.1-0.7,0.1-1.3,0.1-2c0-0.1,0-0.2,0-0.3l0,0c-0.1-0.1-0.1-0.2,0-0.3
		c0.1,0.1,0,0.2,0,0.3c0.1,0.5,0.2,1,0.2,1.6c0,0.5,0,1.1,0,1.6c0,0.1,0,0.2-0.1,0.3S17.7,12.5,17.6,12.5z M11.3,6.4
		c0.1-0.3,0.1-0.6,0.1-0.9c0-0.1,0.1-0.2,0.2-0.2c0,0,0.1,0,0.1,0c0.1,0.1,0.4-0.1,0.4,0.2c0,0.5,0,1.1,0,1.6l0,0
		c-0.1,0.3-0.1,0.5-0.1,0.8c0,0.1,0,0.2-0.2,0.2h-0.4c-0.3,0.1-0.2-0.2-0.3-0.4l0,0C11.2,7.3,11.2,6.9,11.3,6.4z M9.5,6.5
		c0-0.2,0.1-0.4,0.1-0.6c0-0.1,0.1-0.2,0.1-0.4c0-0.4,0-0.5,0.4-0.4s0.6,0,0.9,0.1c-0.2,0.9-0.3,1.8-0.4,2.6l0,0v0.1
		c0,0.4-0.3,0.4-0.6,0.3H9.8c-0.6,0-0.6,0-0.5-0.6l0,0C9.5,7.2,9.4,6.9,9.5,6.5z M8,5.1c0.2,0,0.4,0,0.5,0c0.6,0.1,0.6,0,0.5,0.6
		C9,6.5,8.8,7.3,8.6,8l0,0C8.5,8.1,8.4,8.2,8.2,8.2c-0.5,0.1-0.9-0.1-1.4,0c-0.1,0-0.1,0-0.2-0.1l0,0c0.4-1,0.9-1.9,1.2-2.9
		C7.8,5.2,7.9,5.2,8,5.1z M6,5.6L6,5.6c0.4-0.5,0.4-0.5,1-0.5l-1.2,3C5.4,8.3,4.9,8.3,4.5,8.2c-0.2,0-0.2-0.1-0.2-0.2s0,0,0,0
		C4.8,7.2,5.4,6.4,6,5.6z M8.7,18.7C8.5,19,8.2,19,7.9,18.9c-0.2-0.1-0.4-0.2-0.5-0.3c-0.2-0.2-0.3-0.5-0.3-0.8
		c0-0.5,0.3-0.4,0.5-0.3c0.1,0,0.2,0,0.2,0l0,0c0.4,0.1,0.8,0.1,1.3,0c0.2,0,0.3,0.1,0.2,0.3C9.2,18.1,9,18.4,8.7,18.7z M17,18
		c-0.1,0.4-0.4,0.8-0.8,1c-0.1,0.1-0.2,0.1-0.4,0.1c-0.2,0-0.4,0-0.6-0.1c-0.3-0.3-0.5-0.8-0.5-1.2c0-0.1,0.1-0.1,0.2-0.1h1.8
		C17,17.7,17.1,17.8,17,18z M18.7,13.2c0.2,0,0.3,0.1,0.3,0.3c0,0.6,0,1.2,0,1.8c0,0.5,0,0.9,0,1.3c0,0.2,0,0.3-0.2,0.3
		c-0.8,0.1-1.6,0.1-2.4,0c-0.2,0-0.3,0-0.5,0c-1.6,0-3.2,0-4.8-0.1c-0.7,0-1.4,0-2.1-0.1c-0.2,0-0.3,0-0.5,0c-1,0.1-2-0.1-3,0H5.6
		c-0.3,0-0.6,0-0.8-0.1S4.9,16.2,5,16c0.1-0.5,0.1-1.1,0.1-1.6c0-0.4,0-0.8,0-1.1s0.3-0.2,0.4-0.3h0.1c0.2,0,0.3,0,0.5,0
		c0.3,0.1,0.6,0.1,0.9,0.1h0c0.5,0.1,0.9,0.1,1.4,0.1c1,0,2.1,0.1,3.1,0.2h3.1c0.8,0,1.6-0.1,2.4-0.1h0.1c0.1,0.2,0.1,0.2,0.3,0
		s0.3-0.1,0.5-0.1S18.5,13.2,18.7,13.2z M19.1,8.2h-3.3c-0.1,0-0.2-0.1-0.2-0.2s0-0.3-0.2-0.4l0,0c0-0.1,0-0.2-0.1-0.2c0,0,0,0,0,0
		l0,0c-0.2-0.6-0.5-1.2-0.8-1.8c-0.2-0.4-0.1-0.4,0.2-0.4s0.5-0.1,0.7-0.1s0.2,0,0.2,0.1c0.2,0.4,0.4,0.7,0.7,1
		c0.5,0.6,1,1.2,1.6,1.7l0.4,0.3c0.4-0.3,0.4-0.3,0.1-0.6c-0.5-0.4-1-0.9-1.4-1.4c-0.3-0.3-0.5-0.6-0.7-1c0-0.1-0.1-0.1,0-0.2
		s0.1,0,0.2,0.1c0.1,0.1,0.2,0.1,0.3,0.1c0,0,0,0,0.1-0.1c0.1-0.1,0.2-0.1,0.3,0c0.6,0.7,1.3,1.3,1.8,2c0.2,0.2,0.3,0.5,0.4,0.7
		C19.4,8.1,19.4,8.2,19.1,8.2z"/>
	<path class="st1" d="M6.6,8.1L6.6,8.1z"/>
	<path class="st1" d="M5.8,9.7V9.5C5.8,9.5,5.8,9.6,5.8,9.7L5.8,9.7z"/>
	<path class="st1" d="M17.7,9.2L17.7,9.2V9.1C17.7,9.1,17.7,9.1,17.7,9.2L17.7,9.2z"/>
	<polygon class="st1" points="18.4,8.2 18.4,8.2 18.4,8.2 	"/>
</g>
</svg>
