<?xml version="1.0" encoding="utf-8"?>
<!-- Generator: Adobe Illustrator 25.1.0, SVG Export Plug-In . SVG Version: 6.00 Build 0)  -->
<svg version="1.1" id="圖層_1" xmlns="http://www.w3.org/2000/svg" xmlns:xlink="http://www.w3.org/1999/xlink" x="0px" y="0px"
	 viewBox="0 0 24 24" style="enable-background:new 0 0 24 24;" xml:space="preserve">
<style type="text/css">
	.st0{fill:#FFFFFF;}
</style>
<g>
	<path class="st0" d="M22.7,14.4L22.7,14.4c-0.1-0.6-0.2-1.1-0.5-1.7c-0.1-0.3-0.4-0.4-0.5-0.6c-0.3-0.5-0.8-0.8-1.4-0.8
		c-0.1,0-0.2,0-0.3,0l0,0c-0.1,0-0.2,0-0.2,0.1c-0.1,0-0.2,0-0.3,0.1l0,0c-0.2,0.2-0.5,0-0.7,0l0,0c-0.4,0-0.8,0.2-1.1,0.5
		c-0.2,0.2-0.4,0.3-0.5,0l0,0c-0.1-0.6-0.2-1.1-0.3-1.7l0,0c0-0.2-0.1-0.3-0.1-0.5c0-0.7-0.1-1.4-0.3-2c-0.1-0.2-0.1-0.3-0.1-0.5
		c0-0.3,0-0.6-0.1-0.8c0-0.1,0.1-0.2,0.1-0.3c0.1-0.3-0.2-0.8-0.5-0.8c-0.3,0-0.6,0-0.8-0.1c-0.2,0-0.3,0.1-0.5,0.1
		c-0.1,0-0.2,0.1-0.2,0.2c-0.1,0.4,0,0.6,0.4,0.6c0.3,0,0.6,0.1,0.7,0.4c0.1,0.2,0.1,0.4,0.1,0.6c0.1,0.6,0.3,1.2,0.4,1.8
		c0.1,0.3-0.1,0.6-0.4,0.8c-0.4,0.3-0.9,0.5-1.4,0.5l0,0c-0.4-0.1-0.8,0.1-1.2,0c-0.3,0-0.5,0-0.8,0c-0.5,0.1-1,0-1.4-0.1
		c-0.2,0-0.4-0.1-0.4,0.1c-0.1,0.2,0,0.4,0.2,0.5c0,0,0.1,0,0.1,0c0.6,0.2,1.2,0.2,1.9,0.2c0.2,0,0.4,0.1,0.6,0.1
		c0.8,0,1.6-0.1,2.3-0.3c0.1,0,0.2,0,0.3,0c0.1,0,0.3,0,0.4,0.1s0,0.3-0.1,0.5c-0.2,0.3-0.6,0.5-0.8,0.8c-0.5,0.4-1,0.8-1.5,1.3l0,0
		c-0.1,0.1-0.2,0.1-0.3,0.2c-0.3,0.1-0.4,0.4-0.7,0.4s-0.4,0.2-0.5,0.4s0.1,0.4,0.3,0.4s0.5,0,0.7-0.2c0.6-0.3,1.1-0.7,1.6-1.1
		c0.5-0.4,0.9-0.8,1.3-1.2l0,0c0.1,0,0.2-0.1,0.2,0l0,0l0,0.1l0,0c0.1,0.2,0,0.5,0.1,0.7c0.1,0.6,0,1.2-0.1,1.8
		c-0.2,0.7-0.1,1.4,0.4,2l0,0c0,0.2,0,0.4,0.2,0.4l0,0c0.4,0.8,1.3,1.2,2.1,1.2l0,0c0.4,0,0.9,0.2,1.3-0.1h0.1
		c0.3-0.1,0.7-0.1,0.9-0.4l0,0c0.4-0.2,0.7-0.5,1-0.9c0.2-0.3,0.4-0.7,0.4-1.1l0,0c0.1-0.4,0.2-0.7,0.2-1.1c0,0,0,0,0-0.1
		C22.8,14.7,22.8,14.6,22.7,14.4z M15.6,12.6C15.6,12.6,15.6,12.6,15.6,12.6c0-0.1,0-0.1,0-0.1C15.6,12.5,15.6,12.6,15.6,12.6z
		 M18,12.6L18,12.6z M21.6,17L21.6,17L21.6,17C21.6,16.9,21.6,16.9,21.6,17L21.6,17z M19.8,12.3c0.3-0.1,0.7-0.1,1,0.2
		c0.1,0.1,0.2,0.2,0.3,0.2c0.2,0.3,0.4,0.6,0.5,1c0,0.1,0.1,0.2,0.2,0.2l0,0c-0.1,0.1-0.1,0.2-0.1,0.4c0,0.4,0,0.8-0.1,1.2
		c-0.1,0.9-0.7,1.7-1.5,2c-0.1,0-0.2,0.1-0.2,0.1l0,0c-0.1,0-0.1,0-0.2,0c0,0-0.1,0.1-0.1,0.1c-0.2,0-0.4,0-0.6,0l0,0l-0.6-0.1l0,0
		c-0.4,0-0.6-0.3-0.9-0.5c-0.5-0.6-0.7-1.4-0.6-2.2c0-0.5,0.2-0.9,0.2-1.4l0,0c0.1-0.3,0.2-0.3,0.4-0.1c0.3,0.3,0.6,0.6,1,0.9l0,0
		h0.1h0.1v0.1l0,0l0.2,0.2l0,0c0.2,0.2,0.5,0.4,0.8,0.5c0.2,0.1,0.5,0,0.6-0.2c0,0,0,0,0,0c0.1-0.1,0.2-0.2,0.2-0.4l0,0
		c0-0.2,0-0.3-0.2-0.4c-0.3-0.3-0.6-0.5-1-0.6c-0.1-0.1-0.3,0.1-0.5,0c-0.2-0.1-0.4-0.2-0.5-0.4l0,0c-0.1-0.1-0.2-0.2-0.3-0.3
		c-0.2-0.1-0.1-0.2,0-0.3c0.2-0.2,0.4-0.4,0.6-0.5c0,0,0,0.1,0,0.1C19.1,12.7,19.5,12.4,19.8,12.3z M21.8,16.3L21.8,16.3z"/>
	<path class="st0" d="M11.8,15.1c-0.2-0.1-0.3-0.3-0.2-0.5l0,0c-0.1-0.4-0.4-0.3-0.7-0.3s-0.3,0-0.4-0.2c0-0.1-0.1-0.2-0.1-0.3
		c0-0.2,0-0.3-0.1-0.5c-0.1-0.6-0.2-1.1-0.3-1.7c0-0.2,0-0.5-0.1-0.7l0,0c0-0.1,0-0.1-0.1-0.2C9.7,10,9.6,9.4,9.5,8.7s0-0.8,0.6-0.6
		c0.1,0,0.2,0.1,0.3,0.1c0.8,0.3,1.2-0.5,1.1-1.2c-0.2-0.6-0.8-1.1-1.4-1.1c-0.1,0-0.1-0.1-0.2,0c-0.1,0-0.2,0-0.4,0.1l0,0
		C9.3,6.1,9.2,6.2,9,6C8.9,5.9,8.7,5.9,8.6,5.9C8.3,5.8,8.1,5.9,7.9,6l0,0C7.3,6,7,6.4,6.9,7.2c0,0.4,0.2,0.7,0.7,0.9S8,8,8.3,7.9
		s0.4,0,0.4,0.3c0,0.3,0.1,0.6,0.2,0.8l0,0c0,0.2,0,0.4,0.1,0.6c0,0.1,0,0.3,0.1,0.4c0.1,0.1,0,0.2-0.1,0.3l0,0c0,0-0.1,0-0.1,0
		c-0.3,0.5-0.9,1-1.4,1.2c-0.2,0.3-0.5,0.4-0.8,0.6c-0.4,0-0.7-0.2-1-0.5c-0.1-0.1-0.2-0.2-0.3-0.2c-0.7-0.2-1.5-0.1-2.1,0.2
		c-0.1,0-0.2,0-0.3,0.1c-0.5,0.4-0.8,0.8-1.1,1.4C1.3,14,1.2,15,1.4,15.9c0,0.2,0.1,0.4,0.2,0.6c0.1,0.5,0.5,0.6,0.7,0.9
		s0.4,0.5,0.8,0.6c0.3,0.1,0.5,0.2,0.8,0.4c0.7,0.4,1.7,0.3,2.3-0.2c0.3-0.2,0.5-0.5,0.7-0.8c0.4-0.5,0.7-1.1,0.7-1.7l0,0
		c0.3-0.2,0.8-0.3,1.2-0.2c0.5,0.2,0.5,0.2,0.4,0.9c0,0.2-0.1,0.4,0.1,0.5l0,0c0.3,0.6,0.8,1,1.4,1.2c0.6,0.1,1.1-0.1,1.5-0.5
		c0.4-0.5,0.5-1.3,0.1-1.9C12.2,15.4,12,15.2,11.8,15.1z M9.8,12.5L9.8,12.5L9.8,12.5z M10.2,6.4L10.2,6.4L10.2,6.4z M10.6,7.1
		L10.6,7.1c0,0.4,0,0.4-0.3,0.3L10,7.3H9.9C9.3,7.1,8.7,7,8.1,7.2c-0.1,0-0.2,0.1-0.3,0s0-0.2,0.1-0.4l0.1-0.1C8,6.7,8,6.7,8.1,6.6
		c0.3-0.1,0.6-0.2,0.9-0.1h0.1l0,0C9.6,6.8,10.1,7,10.6,7.1L10.6,7.1z M5.3,14.2c0,0,0-0.1,0-0.1l0,0c0.3-0.1,0.4-0.3,0.5-0.5
		c0,0,0,0,0-0.1c0.1-0.1,0.2-0.2,0.3-0.2l0,0h0.1c0,0,0.1,0,0.1,0.1l0,0c0,0.1,0,0.1,0,0.2v0.1c0,0.1,0.1,0.1,0.1,0.1l0,0
		c-0.1,0.2-0.1,0.4,0,0.6c0.1,0.2,0,0.3-0.2,0.4c-0.2,0.1-0.5,0.1-0.8,0.1c0-0.1,0-0.1-0.1-0.1c-0.4,0-0.5-0.2-0.3-0.6L5.3,14.2z
		 M10.8,16.1L10.8,16.1z M9.5,9.2L9.5,9.2z M8,11.8L8,11.8c0.4-0.2,0.7-0.5,1-0.8c0.1-0.1,0.2,0,0.2,0.1s0,0.4,0.1,0.6
		c0,0.3,0.1,0.5,0.1,0.8c0,0.1,0,0.2,0,0.3c0,0.4,0.1,0.8,0.3,1.1l0,0c0,0.2,0,0.3,0.1,0.5c0,0.1,0,0.2-0.1,0.4c0,0-0.1,0.1-0.1,0.1
		l0,0c0,0-0.1,0-0.1,0c-0.1-0.1-0.2-0.1-0.4-0.1c-0.5,0.1-0.9,0-1.4,0h0l0,0l0,0c-0.2-0.1-0.3-0.1-0.3-0.4c0-0.1,0-0.2-0.1-0.2l0,0
		c0-0.4-0.1-0.8-0.3-1.2c0-0.1,0-0.1,0-0.2v-0.1c0.1-0.2,0.3-0.3,0.4-0.4h0.1C7.7,12.2,7.9,12,8,11.8z M6.1,16.9
		c-0.2,0.1-0.3,0.2-0.5,0.4c-0.3,0.4-0.8,0.5-1.2,0.4c-0.5-0.1-1-0.3-1.3-0.7c-0.2-0.3-0.4-0.5-0.7-0.7c-0.1,0-0.1-0.1-0.2-0.1
		C2.1,16,2,15.9,2,15.7c-0.1-0.6,0-1.2,0.3-1.7c0.3-0.7,0.8-1.2,1.4-1.6c0.4-0.1,0.8-0.1,1.2-0.1c0.3,0,0.6,0.2,0.8,0.5
		c0.1,0.1,0.1,0.2,0,0.2l-1.1,1c-0.1,0-0.3,0-0.3,0.1c0,0,0,0,0,0c-0.1,0.3-0.2,0.7-0.3,1.1c0,0.4,0.2,0.6,0.6,0.5s0.3-0.4,0.5-0.3
		c0.4,0.2,0.8,0,1.3,0l0,0c0.1,0,0.2,0,0.3,0.1c0,0.1,0,0.3,0,0.4l0,0c-0.1,0.2-0.2,0.4-0.3,0.6C6.3,16.7,6.2,16.8,6.1,16.9
		L6.1,16.9z M8.6,15.3L8.6,15.3z M10.8,17.3h-0.1h-0.2l-0.1-0.1l-0.1-0.1l0,0C10.2,17,10,17,9.9,16.9c0-0.2,0-0.4-0.1-0.6l0,0
		c0.1-0.1,0.1-0.4,0.3-0.5c0,0,0,0.1,0.1,0.1c0.1,0.3,0.3,0.4,0.6,0.4c0,0,0.1,0,0.1,0c0.2-0.1,0.3-0.3,0.2-0.7c0-0.1,0-0.1-0.1-0.2
		l0,0c0.1,0,0.1,0,0.2,0l0,0c0,0.1,0.1,0.2,0.2,0.3c0.3,0.3,0.4,0.9,0.1,1.3c0,0,0,0.1,0,0.1C11.2,17.2,11,17.2,10.8,17.3z"/>
</g>
</svg>
